<?xml version="1.0" encoding="UTF-8"?>
<svg
   width="293"
   height="538"
   viewBox="0 0 293 538"
   xmlns="http://www.w3.org/2000/svg">
  <g
     transform="translate(0,538) scale(0.1,-0.1)"
     fill="#000000"
     stroke="none">
    <path
       d="m 1364.0007,5307 c -38,-15 -96,-66 -125,-110 -19,-29 -23,-111 -10,-190 5,-29 3,-43 -10,-57 -14,-15 -17,-32 -13,-76 4,-48 10,-62 34,-82 28,-24 29,-29 32,-124 4,-98 4,-98 -26,-126 -17,-16 -49,-34 -73,-42 -23,-8 -70,-31 -103,-50 -34,-20 -92,-45 -130,-55 -128,-34 -182,-96 -246,-286 -24,-72 -55,-139 -83,-182 -25,-37 -60,-104 -78,-148 -24,-59 -52,-102 -106,-164 -48,-57 -88,-116 -117,-178 -46,-94 -173,-401 -196,-472 -7,-22 -25.999998,-69 -41.999998,-105 -39.999999,-88 -54.999999,-203 -38,-275 16,-65 30,-81 59,-66 39.999998,22 60.999998,61 60.999998,117 0,52 12,78 24,49 8,-23 53,-18 70,7 9,12 16,43 16,68 1,25 8,63 17,85 9,22 16,62 15,88 -2,61 11,81 118,172 94,81 151,152 217,274 46,84 175,266 246,346 32,37 36,38 42,20 9,-25 70,-173 101,-245 27,-62 30,-123 14,-264 -33,-281 -42,-343 -69,-461 -81,-359 -92,-707 -30,-965 18,-79 19,-88 4,-194 -9,-60 -24,-138 -35,-172 -45,-146 -50,-290 -19,-546 14,-119 19,-208 16,-284 -4,-110 -5,-113 -48,-189 -24,-42 -57,-86 -72,-97 -39,-28 -87,-96 -87,-123 0,-22 39,-64 75,-83 11,-5 43,-13 72,-17 52,-7 53,-6 107,41 30,26 60,61 66,77 5,17 28,47 50,67 41,38 41,38 40,111 -3,167 17,361 50,478 17,63 39,130 49,150 31,60 33,93 16,249 -16,150 -16,150 21,223 53,106 62,136 79,272 20,150 73,357 143,557 3,9 9,2 15,-20 5,-19 27,-89 48,-155 54,-171 66,-222 88,-383 18,-128 25,-154 68,-243 47,-101 47,-101 35,-222 -18,-178 -16,-206 18,-290 47,-118 81,-270 86,-387 9,-193 15,-285 19,-307 3,-12 20,-31 39,-42 22,-14 36,-31 40,-52 6,-31 84,-113 118,-125 10,-3 43,0 75,5 42,8 66,20 90,43 51,49 45,75 -35,161 -139,151 -159,236 -122,547 34,283 29,424 -20,605 -44,165 -48,242 -20,370 56,258 42,584 -40,958 -35,161 -83,569 -74,630 4,23 26,85 49,137 23,52 50,119 60,148 17,54 17,54 47,25 56,-53 202,-258 262,-368 55,-100 73,-122 199,-247 138,-136 138,-136 132,-180 -4,-28 -1,-55 8,-78 8,-19 18,-62 22,-95 4,-33 12,-68 17,-77 11,-22 51,-23 69,-2 12,14 14,14 20,-3 4,-10 8,-40 8,-67 1,-42 6,-53 33,-78 18,-16 39,-27 47,-26 50,10 51,220 1,342 -16,39 -65,163 -110,276 -119,300 -166,390 -249,485 -51,58 -79,101 -101,155 -17,41 -55,113 -84,160 -30,47 -61,112 -71,145 -62,216 -120,285 -276,325 -39,10 -78,25 -88,34 -9,8 -55,33 -101,55 -119,55 -124,62 -125,176 0,93 1,95 31,123 23,21 32,40 37,75 7,47 -3,89 -22,102 -7,4 -11,50 -11,119 0,101 -2,117 -23,147 -12,19 -42,44 -67,56 -58,28 -190,39 -240,20 z"
       id="CuerpoCompleto"/>
    <g transform="translate(24.000703)">
      <path
         d="m 1970,1448 c 6,-24 16,-59 21,-78 23,-79 22,-288 -1,-485 -16,-136 -21,-218 -16,-289 5,-94 7,-102 53,-183 26,-47 60,-94 75,-105 16,-11 40,-35 54,-54 23,-29 25,-38 16,-59 -13,-29 -52,-50 -108,-59 -40,-6 -44,-3 -93,43 -29,27 -51,58 -51,69 0,12 -17,34 -41,52 -39,32 -40,34 -39,94 1,33 -3,129 -9,211 -11,160 -44,312 -95,433 -29,69 -31,104 -13,259 13,106 18,122 39,106 45,-35 113,-15 154,46 15,23 30,41 35,41 5,0 13,-19 19,-42 z"
         id="PantorrillaDER"
         fill="#ffffff"/>
      <path
         d="m 976,1437 c 9,-16 31,-35 49,-43 30,-12 40,-12 77,1 23,8 43,13 44,12 6,-7 24,-194 24,-253 0,-55 -6,-84 -25,-125 -13,-30 -38,-110 -55,-179 -30,-120 -35,-171 -45,-425 -1,-38 -3,-77 -4,-85 0,-8 -17,-26 -36,-39 -23,-15 -38,-36 -45,-60 -7,-23 -27,-50 -54,-73 -41,-35 -48,-37 -89,-32 -55,8 -119,56 -110,82 3,9 32,44 63,77 108,115 160,254 146,390 -3,27 -15,138 -27,245 -15,138 -19,221 -15,284 7,92 27,200 46,250 9,24 13,26 26,15 8,-7 22,-26 30,-42 z"
         id="PantorrilaIZQ"
         fill="#ffffff"/>
      <path
         d="m 1937,1619 c 12,-83 12,-83 -20,-119 -18,-20 -40,-47 -49,-58 -41,-51 -122,-12 -175,83 -42,77 -42,90 1,64 59,-34 111,-4 134,77 11,40 12,40 54,38 43,-2 43,-2 55,-85 z"
         id="ArticulacionRodillaDER"
         fill="#ffffff"/>
      <path
         d="m 1060,1654 c 13,-38 24,-53 52,-68 35,-19 35,-19 77,2 22,12 41,19 41,16 0,-4 -14,-33 -32,-65 -41,-77 -88,-119 -133,-119 -31,0 -40,7 -71,50 -20,28 -40,50 -45,50 -12,0 -11,50 2,124 12,62 12,62 52,61 40,-1 41,-2 57,-51 z"
         id="ArticulacionRodillaIZQ"
         fill="#ffffff" />
      <path
         d="m 2760,2978 c 0,-6 18,-56 40,-111 36,-90 41,-111 43,-193 1,-64 -2,-97 -10,-105 -11,-10 -13,-1 -13,47 0,49 -6,74 -32,125 -42,82 -61,87 -74,19 -5,-28 -13,-52 -19,-53 -5,-1 -13,24 -16,56 -4,31 -14,78 -24,103 -19,51 -14,94 13,94 9,0 31,8 47,19 31,19 45,18 45,-1 z"
         id="ManoDER"
         fill="#ffffff"/>
      <path
         d="m 167,2980 c 14,-11 34,-20 45,-20 29,0 41,-45 22,-82 -9,-17 -20,-63 -25,-101 -5,-39 -11,-73 -14,-76 -11,-10 -25,24 -25,61 0,115 -95,-9 -110,-144 -6,-55 -7,-59 -15,-34 -4,16 -5,67 -2,115 4,66 13,102 36,154 17,37 36,85 42,107 7,22 14,40 17,40 2,0 15,-9 29,-20 z"
         id="ManoIZQ"
         fill="#ffffff"/>
      <path
         d="m 1874,2970 c 4,-30 23,-127 41,-215 19,-88 42,-221 51,-295 30,-250 4,-623 -51,-706 -12,-18 -23,-22 -57,-21 -41,2 -42,1 -54,-39 -24,-81 -45,-98 -99,-78 -24,10 -62,93 -80,175 -8,41 -22,108 -31,149 -9,41 -33,129 -55,195 -52,164 -69,238 -69,316 0,59 2,67 24,78 28,16 65,88 95,190 49,164 118,261 216,307 57,27 59,26 69,-56 z"
         id="CuadricepsDER"
         fill="#ffffff"/>
      <path
         d="m 1159,2974 c 60,-54 88,-108 141,-268 36,-109 48,-134 81,-166 30,-29 39,-45 39,-71 0,-66 -21,-162 -64,-297 -24,-76 -56,-193 -70,-262 -49,-230 -76,-292 -129,-298 -37,-4 -54,11 -69,62 -16,58 -27,68 -62,62 -55,-10 -66,8 -97,165 -19,95 -23,146 -23,304 0,205 13,316 65,555 15,74 33,166 39,204 6,38 13,73 16,77 8,14 86,-25 133,-67 z"
         id="CuadricepsIZQ"
         fill="#ffffff" />
      <path
         d="m 2565,3435 c 24,-49 71,-157 105,-239 56,-139 59,-151 45,-172 -29,-44 -54,-41 -104,14 -25,27 -74,73 -108,102 -78,65 -126,127 -197,253 -31,54 -56,100 -56,102 0,2 17,1 39,-2 32,-4 43,-1 71,24 27,24 33,38 38,83 5,55 5,55 64,-10 36,-40 75,-99 103,-155 z"
         id="AntebrazoDER"
         fill="#ffffff"/>
      <path
         d="m 503,3532 c 15,-23 69,-44 98,-38 16,3 29,2 29,-3 0,-11 -74,-143 -117,-207 -29,-45 -269,-284 -293,-292 -17,-6 -50,19 -55,41 -4,16 18,81 65,198 89,217 117,269 188,353 56,67 56,67 67,14 6,-29 14,-59 18,-66 z"
         id="AntebrazoIZQ"
         fill="#ffffff"/>
      <path
         d="m 1959,3862 c 12,-74 -4,-135 -75,-294 -24,-53 -46,-119 -50,-146 -5,-43 1,-140 21,-294 5,-37 5,-38 -28,-38 -24,0 -41,9 -64,33 -46,48 -57,94 -49,207 4,64 1,124 -9,185 -19,118 -19,165 3,192 17,23 235,222 239,219 1,-1 6,-30 12,-64 z"
         id="OblicuoDER"
         fill="#ffffff" />
      <path
         d="m 1193,3672 c 3,-15 -1,-70 -9,-122 -8,-52 -14,-152 -13,-221 1,-101 -2,-134 -16,-163 -22,-47 -60,-76 -98,-76 -29,0 -29,0 -21,88 5,48 9,134 9,192 0,105 0,105 -52,220 -67,150 -75,183 -67,275 7,74 7,74 134,-46 86,-81 130,-129 133,-147 z"
         id="OblicuoIZQ"
         fill="#ffffff"/>
      <path
         d="m 2202,3983 c 97,-56 199,-334 154,-421 -33,-64 -96,-52 -173,32 -83,90 -168,195 -180,224 -13,30 -17,140 -5,159 23,37 145,40 204,6 z"
         id="BicepsDER"
         fill="#ffffff"/>
      <path
         d="m 859,3997 c 55,-28 53,-148 -4,-220 -19,-23 -62,-77 -95,-119 -101,-129 -162,-161 -216,-115 -25,22 -28,31 -28,79 2,97 72,274 133,336 46,46 157,67 210,39 z"
         id="BicepsIZQ"
         fill="#ffffff"/>
      <path
         d="m 1695,4349 c 60,-17 119,-64 185,-150 33,-43 81,-95 107,-117 46,-40 46,-40 22,-52 -13,-7 -51,-38 -85,-70 -82,-76 -122,-94 -210,-95 -91,0 -173,38 -219,103 -30,43 -30,45 -33,191 -3,148 -3,148 28,175 27,22 41,26 98,26 37,0 85,-5 107,-11 z"
         id="PechoDER"
         fill="#ffffff"/>
      <path
         d="m 1388,4340 c 32,-20 32,-20 32,-170 0,-163 -5,-183 -57,-232 -40,-38 -131,-78 -179,-78 -79,0 -138,26 -213,94 -38,36 -79,70 -91,76 -21,11 -19,15 52,89 40,43 97,105 126,139 64,75 123,101 227,101 53,1 78,-4 103,-19 z"
         id="PechoIZQ"
         fill="#ffffff"/>
      <path
         d="m 1942,4369 c 64,-13 127,-48 161,-88 27,-32 85,-174 94,-230 6,-31 4,-34 -13,-27 -10,5 -37,13 -59,18 -72,17 -108,48 -264,228 -30,34 -65,67 -78,73 -12,5 -23,14 -23,18 0,19 108,23 182,8 z"
         id="HombroFrontalDER"
         fill="#ffffff"/>
      <path
         d="m 1108,4371 c 22,-6 21,-8 -23,-41 -26,-19 -76,-72 -111,-117 -36,-46 -86,-99 -111,-118 -41,-31 -170,-81 -182,-70 -7,8 48,165 77,218 32,60 91,102 169,121 61,15 143,18 181,7 z"
         id="HombroFrontalIZQ"
         fill="#ffffff"/>
      <path
         d="m 1745,4461 c 90,-44 90,-44 13,-59 -73,-14 -79,-14 -98,3 -30,27 -40,117 -12,103 4,-2 48,-23 97,-47 z"
         id="TrapecioAltoDER"
         fill="#ffffff"/>
      <path
         d="m 1250,4470 c 0,-43 -26,-80 -57,-80 -27,0 -133,23 -133,30 0,5 168,87 183,89 4,1 7,-17 7,-39 z"
         id="TrapecioAltoIZQ"
         fill="#ffffff"/>
    </g>
    <path
       d="m 1447.0007,3848 c 16,-23 16,-23 35,1 16,20 25,23 60,19 22,-3 66,-18 97,-32 57,-26 57,-26 51,-73 -3,-27 -11,-163 -16,-303 -6,-140 -17,-293 -24,-339 -25,-146 -125,-321 -183,-321 -34,0 -77,48 -120,134 -64,128 -79,217 -88,541 -3,110 -11,226 -17,258 -13,70 -2,86 76,116 70,27 110,27 129,-1 z"
       fill="#ffffff"
       id="Abdomen"/>
    <path
       d="m 1430.0007,4610 c 48,-14 90,-4 150,36 20,14 38,24 39,22 2,-2 5,-62 7,-135 4,-132 4,-132 -44,-138 -26,-4 -64,-18 -84,-31 -37,-25 -37,-25 -59,-4 -12,12 -47,25 -81,32 -59,11 -59,11 -56,132 2,66 5,127 7,134 3,9 15,6 42,-12 21,-13 57,-30 79,-36 z"
       fill="#ffffff"
       id="Cuello"/>
    <path
       d="m 1387.0007,5124 c 63,-16 72,-16 138,1 89,21 95,17 114,-91 10,-56 19,-83 34,-95 15,-13 21,-29 21,-59 0,-34 -6,-47 -30,-68 -18,-16 -30,-36 -30,-51 0,-35 -76,-105 -129,-119 -82,-20 -192,46 -207,124 -4,24 -13,38 -26,42 -39,10 -53,103 -18,124 17,11 20,24 20,76 0,60 20,132 37,132 4,0 38,-7 76,-16 z"
       fill="#ffffff"
       id="Rostro"/>
    <path
       d="m 1539.0007,5272 c 28,-5 60,-13 71,-20 26,-14 54,-70 54,-108 0,-29 0,-29 -26,0 -23,24 -31,27 -63,21 -101,-19 -126,-21 -164,-13 -108,22 -107,22 -132,-2 -25,-23 -25,-23 -25,-1 0,21 35,61 96,111 37,31 63,32 189,12 z"
       fill="#ffffff"
       id="Pelo"/>
    <path
       d="m 1451.0007,3793 c -4,-3 -7,-19 -7,-34 0,-29 -1,-30 -100,-45 -110,-16 -100,-49 16,-47 70,2 76,0 86,-23 14,-31 26,-30 38,2 9,24 14,26 63,23 87,-4 117,0 117,15 0,14 -69,36 -115,36 -43,0 -65,17 -65,50 0,28 -17,40 -33,23 z"
       id="RayaGuiaAbdominal4"
       style="fill:#000000;fill-opacity:1"/>
    <path
       d="m 1451.0007,3594 c -4,-4 -7,-24 -7,-45 0,-44 -9,-49 -96,-49 -47,0 -64,-4 -64,-13 0,-21 46,-37 105,-37 47,0 55,-3 55,-19 0,-10 7,-24 15,-31 15,-13 14,-14 30,35 3,11 19,15 58,15 56,0 109,18 104,35 -2,6 -36,12 -75,15 -39,3 -75,10 -81,15 -5,6 -11,25 -13,44 -3,33 -17,49 -31,35 z m 23,-114 c 0,-5 -5,-10 -11,-10 -5,0 -7,5 -4,10 3,6 8,10 11,10 2,0 4,-4 4,-10 z"
       id="RayaGuiaAbdominal3"
       style="fill:#000000;fill-opacity:1"/>
    <path
       d="m 1451.0007,3364 c -4,-4 -7,-22 -7,-41 0,-33 0,-33 -74,-33 -41,0 -77,-4 -80,-8 -10,-17 52,-52 91,-52 45,0 59,-8 64,-35 6,-27 39,-33 39,-6 0,25 28,41 70,41 36,0 90,28 90,47 0,8 -24,13 -77,15 -78,3 -78,3 -83,37 -5,34 -19,48 -33,35 z m 28,-104 c 3,-5 -1,-10 -9,-10 -9,0 -16,5 -16,10 0,6 4,10 9,10 6,0 13,-4 16,-10 z"
       id="RayaGuiaAbdominal2"
       style="fill:#000000;fill-opacity:1"/>
    <path
       d="m 1451.0007,3144 c -4,-4 -7,-76 -7,-161 0,-147 1,-153 20,-153 20,0 20,5 18,157 -3,146 -9,178 -31,157 z"
       id="RayaGuiaAbdominal1"
       style="fill:#000000;fill-opacity:1"/>
  </g>
</svg>