<?xml version="1.0" encoding="UTF-8"?>
<svg
   width="297"
   height="533"
   viewBox="0 0 297 533"
   xmlns="http://www.w3.org/2000/svg">
  <g transform="translate(0,533) scale(0.1,-0.1)" fill="#000000" stroke="none">
    <path
       d="m 1239.9973,5115 c -15,-34 -18,-65 -16,-199 2,-158 2,-158 32,-184 29,-25 30,-28 33,-132 4,-107 4,-107 -29,-131 -45,-32 -238,-119 -263.00001,-119 -36,0 -143,-57 -191,-101 -56,-51 -91,-109 -116,-190 -11,-36 -35,-79 -58,-107 -35,-41 -161,-293 -161,-321 0,-6 -26,-39 -58,-73 -74,-80 -115,-141 -157,-231 -53,-116 -154,-416 -164.000003,-489 -5,-37 -19,-98 -31,-135 -21,-68 -21,-68 -1,-143 18,-64 27,-81 63.000003,-112 24,-21 47,-38 51,-38 4,0 16,19 27,42 16,37 17,46 5,74 -12,30 -10,84 4,84 3,0 12,-9 19,-20 14,-23 54,-26 71,-6 9,11 9,29 1,74 -6,33 -8,66 -5,74 3,8 -1,35 -9,59 -9,24 -16,50 -16,57 0,32 38,88 129,192 59,67 127,160 175,239 44,71 112,169 153,217 40,49 96,123 124,164 28,41 53,74 56,73 3,-1 16,-33 29,-71 13,-39 36,-96 53,-128 44.00001,-88 55.00001,-163 47.00001,-322 -3,-76 -13,-173 -21,-217 -9,-44 -19.00001,-114 -25.00001,-155 -5,-41 -16,-94 -24,-117 -19,-54 -53,-258 -66,-398 -14,-152 -12,-279 6,-420 9,-66 18,-146 21,-177 8,-89 -15,-282 -48,-393 -53,-179 -56,-241 -24,-555 42,-419 34,-459 -98,-535 -27,-15 -55,-38 -64,-52 -14,-21 -14,-25 1,-42 9,-10 45,-26 79,-36 34,-9 69,-23 77,-30 49,-41 145,-59 190.00001,-35 35,19 41,49 46,218 6,219 39,370 138,627 18,48 20,155 5,296 -20,183 -19,197 24,259 44,65 49,80 81,270 14,80 43,210 65,290 35,129 54,216 77,345 6,37 8,31 25,-67 10,-59 37,-174 59,-255 22,-81 50,-200 61,-263 39,-221 48,-252 91,-323 41,-69 41,-69 27,-210 -23,-239 -20,-284 29,-414 85,-227 110,-366 111,-616 1,-107 1,-109 31,-139 29,-28 35,-30 89,-26 43,3 71,12 107,35 27,17 65,34 84,38 58,12 90,33 90,59 0,27 -19,46 -75,74 -22,11 -54,35 -72,54 -52,54 -57,117 -30,377 13,130 21,280 21,376 -1,152 -2,166 -33,265 -55,178 -67,353 -37,548 15,103 18,158 13,325 -6,220 -20,335 -66,527 -52,218 -86,493 -75,615 7,87 29,168 59,220 13,22 33,70 45,108 12,37 25,67 30,67 4,0 23,-24 41,-52 19,-29 70,-98 115,-154 45,-55 103,-134 129,-175 27,-41 72,-110 100,-154 29,-44 87,-118 128,-165 42,-46 88,-106 103,-133 24,-45 25,-50 11,-80 -8,-18 -18,-78 -21,-135 -6,-87 -5,-103 9,-108 25,-10 61,4 72,28 10,22 10,22 17,-9 5,-20 2,-47 -5,-68 -12,-32 -11,-40 6,-73 11,-20 25,-37 32,-37 6,0 29,16 51,36 34,30 42,46 57,111 18,76 18,76 -8,170 -15,52 -27,111 -27,131 0,21 -7,54 -16,75 -9,20 -41,109 -71,197 -78,226 -123,310 -226,422 -32,33 -63,78 -71,99 -34,94 -116,253 -153,295 -24,29 -45,65 -52,94 -39,154 -159,272 -311,305 -30,6 -107,37 -170,68 -115,57 -115,57 -123,127 -10,99 -2,147 33,183 34,36 49,107 30,151 -6,16 -9,40 -5,52 15,46 6,121 -22,178 -116.7343,269.561 -414.4046,142.5728 -474,6 z"
       id="CuerpoCompleto" />
    <g>
      <path
         d="m 1960.9973,880 c 34,-53 65,-69 99,-50 26,13 25,30 5,-191 -25,-273 -3,-354 115,-414 56,-28 78,-50 61,-60 -7,-4 -34,-13 -62,-21 -28,-7 -67,-24 -87,-38 -20,-14 -58,-28 -87,-32 -46,-6 -53,-4 -71,19 -17,22 -20,42 -21,172 -1,163 -16,259 -63,417 -17,57 -31,107 -32,112 -1,5 11,11 28,12 35,4 52,24 67,82 6,23 12,42 13,42 2,0 17,-23 35,-50 z"
         id="PieTraceroDER"
         fill="#ffffff" />
      <path
         d="m 1054.9973,887 c 9,-50 33,-77 67,-77 17,0 29,-5 29,-12 0,-7 -13,-55 -29,-105 -54,-171 -67,-262 -70,-505 -1,-82 -3,-89 -26,-104 -33.00001,-21 -101.00001,-12 -149.00001,21 -20,13 -55,29 -78,35 -74,19 -78,21 -78,36 0,7 21,25 48,38 69,35 123,95 133,148 14,76 6,311 -16,442 -5,27 -4,28 28,22 41,-8 73,14 102.00001,67 22,41 30,40 39,-6 z"
         id="PieTraceroIZQ"
         fill="#ffffff" />
    </g>
    <g>
      <path
         d="m 2064.9973,1293 c 48,-148 40,-379 -15,-429 -24,-21 -38,-11 -82,63 -36,60 -63,69 -73,26 -25,-112 -29,-119 -69,-109 -15,4 -31,22 -45,52 -21,42 -22,57 -18,173 4,98 9,136 24,167 20,42 24,42 105,28 32,-5 41,-1 83,35 26,23 53,41 61,41 7,0 20,-21 29,-47 z"
         id="PantorrillaDER"
         fill="#ffffff" />
      <path
         d="m 990.99729,1299 c 51.00001,-43 63.00001,-45 136.00001,-24 50,15 76,-59 78,-225 1,-97 -2,-121 -19,-154 -41,-81 -81,-74 -105,20 -20,78 -42,79 -85.00001,5 -37,-62 -55,-76 -79,-58 -57,42 -60,352 -4,460 13,25 24,22 78,-24 z"
         id="PantorrillaIZQ"
         fill="#ffffff" />
    </g>
    <g>
      <path
         d="m 1914.9973,1575 c 27,-18 58,-9 70,20 12,33 24,12 30,-57 4,-40 9,-91 12,-113 5,-39 4,-41 -56,-89 -60,-48 -63,-49 -96,-37 -19,7 -47,10 -63,6 -29,-6 -29,-6 -28,44 1,39 -5,58 -29,92 -50,74 -49,70 -6,63 34,-5 42,-3 60,21 12,15 24,43 27,64 15,89 15,90 35,44 10,-23 30,-49 44,-58 z"
         id="ArticulacionRodillaDER"
         fill="#ffffff" />
      <path
         d="m 1148.9973,1533 c 14,-26 44,-37 78,-29 13,4 24,4 24,1 0,-3 -16,-29 -35,-58 -27,-40 -35,-62 -35,-97 0,-46 0,-46 -42,-46 -24,0 -52,-4 -64,-8 -16,-6 -32,2 -68,33 -25.00001,22 -53.00001,44 -62.00001,49 -12,7 -13,16 -5,53 6,24 11,67 12,94 0,28 4,61 8,75 7,25 7,25 19,3 17,-32 48.00001,-46 71.00001,-34 10,6 29,32 41,58 23,48 23,48 35,-12 6,-33 16,-70 23,-82 z"
         id="ArticulacionRodillaIZQ"
         fill="#ffffff" />
    </g>
    <g>
      <path
         d="m 1909.9973,2919 c 12,-16 26,-53 31,-82 5,-29 18,-86 29,-127 76,-279 91,-668 37,-927 -42,-201 -67,-227 -116,-118 -27,60 -52,87 -67,71 -3,-3 -9,-41 -13,-83 -4,-43 -11,-86 -15,-95 -8,-19 -40,-33 -55,-23 -23,14 -52,92 -70,183 -10,54 -28,133 -40,177 -62,229 -90,351 -104,454 -9,63 -14,116 -12,118 2,3 14,-1 27,-7 37,-20 215,-8 266,18 84,44 133,141 118,238 -5,37 -29,125 -61,226 -8,27 19,13 45,-23 z"
         id="IsquiotibialDER"
         fill="#ffffff" />
      <path
         d="m 1069.9973,2835 c -48,-165 -34,-264 48,-329 20,-17 59,-36 87,-43 60,-16 184,-17 222,-3 27,11 27,11 20,-62 -9,-92 -38,-233 -75,-368 -30,-108 -57,-217 -86,-352 -17,-80 -49,-141 -77,-146 -27,-5 -47,38 -55,123 -7,69 -11,80 -27,80 -13,0 -28,-19 -50,-65 -17,-36 -38,-66 -47,-68 -22,-4 -43.00001,51 -69.00001,180 -57,277 -42,630 40.00001,945 17,64 30,126 30,139 0,25 62,104 68,86 2,-6 -11,-59 -29,-117 z"
         id="IsquiotibialIZQ"
         fill="#ffffff" />
    </g>
    <g>
      <path
         d="m 1762.9973,3019 c 43,-22 61,-53 95,-159 29,-93 40,-204 24,-253 -18,-55 -78,-103 -147,-117 -85,-18 -179,-10 -207,18 -21,22 -22,29 -22,225 0,219 4,241 56,280 54,39 130,42 201,6 z"
         id="GluteoDER"
         fill="#ffffff" />
      <path
         d="m 1396.9973,3019 c 59,-36 68,-71 69,-280 0,-210 -5,-231 -63,-250 -50,-16 -181,-5 -231,20 -103,53 -123,151 -67,337 41,138 64,169 143,190 56,15 106,9 149,-17 z"
         id="GluteoIZQ"
         fill="#ffffff" />
    </g>
    <g>
      <path
         d="m 2840.9973,2847 c 0,-17 11,-72 25,-122 23,-86 24,-92 9,-156 -10,-44 -23,-74 -40,-89 -27,-26 -31,-18 -9,20 30,52 10,141 -38,170 -46,28 -55,25 -64,-22 -5,-23 -13,-43 -20,-45 -17,-6 -5,152 15,204 14,35 22,43 43,43 14,0 34,7 45,15 28,21 34,18 34,-18 z"
         id="ManoDER"
         fill="#ffffff" />
      <path
         d="m 205.99729,2850 c 35,0 50,-43 58,-160 6,-86 6,-93 -8,-76 -8,11 -15,30 -15,43 0,33 -21,37 -63,13 -30,-18 -38,-30 -48,-75 -11,-49 -10,-57 10,-91 27,-45 22,-53 -11,-19 -17,16 -30.000003,47 -38.000003,87 -13,58 -12,68 13.000003,164 15,56 27,112 27,124 0,21 1,22 25,6 13,-9 36,-16 50,-16 z"
         id="ManoIZQ"
         fill="#ffffff" />
    </g>
    <g>
      <path
         d="m 2530.9973,3542 c 8,-10 35,-43 58,-73 62,-76 105,-166 172,-366 64,-187 65,-206 15,-219 -32,-8 -51,4 -83,53 -15,22 -64,83 -110,134 -105,118 -269,372 -244,378 29,6 39,20 46,63 4,22 8,44 11,47 2,4 29,6 61,4 43,-1 62,-7 74,-21 z"
         id="AntebrazoDER"
         fill="#ffffff" />
      <path
         d="m 574.99729,3550 c 2,-8 7,-32 11,-52 4,-29 12,-39 30,-44 14,-3 25,-7 25,-9 0,-4 -118,-193 -159,-255 -20,-30 -62,-82 -94,-117 -33,-34 -80,-91 -106,-125 -29,-40 -55,-64 -70,-66 -27,-4 -61,23 -61,49 0,26 97,303 135,386 37,80 74,136 133,203 38,43 41,45 96,45 42,0 57,-4 60,-15 z"
         id="AntebrazoIZQ"
         fill="#ffffff" />
    </g>
    <g>
      <path
         d="m 2215.9973,3998 c 61,-15 114,-78 179,-213 31,-64 59,-135 62,-157 7,-39 7,-39 -30,-33 -46,9 -62,-4 -71,-58 -4,-23 -9,-45 -12,-50 -6,-10 -39,9 -90,49 -55,45 -193,250 -193,286 0,25 18,158 26,185 3,12 59,9 129,-9 z"
         id="TricepsDER"
         fill="#ffffff" />
      <path
         d="m 893.99729,3921 c 9,-55 14,-108 10,-118 -15,-41 -143,-221 -185,-259 -82,-75 -107,-78 -108,-11 0,16 -5,37 -11,49 -9,17 -17,19 -56,13 -45,-7 -45,-7 -38,27 9,44 91,223 126,273 51,75 83,98 157,111 37,7 72,13 77,13 6,1 18,-44 28,-98 z"
         id="TricepsIZQ"
         fill="#ffffff" />
    </g>
    <path
       d="m 1509.9973,3654 c 12,11 23,17 25,15 1,-2 9,-26 15,-54 7,-27 37,-103 68,-168 56,-121 59,-131 67,-279 5,-88 5,-88 -25,-88 -49,0 -124,-38 -151,-76 -25,-34 -25,-34 -56,5 -32,40 -99,71 -152,71 -26,0 -26,0 -23,73 6,144 13,174 63,276 40,83 62,140 86,228 2,9 11,8 33,-4 28,-17 30,-17 50,1 z"
       id="EspaldaBaja"
       fill="#ffffff" />
    <g>
      <path
         d="m 1860.9973,4169 c 41,-33 99,-76 128,-96 61,-43 69,-63 53,-140 -6,-31 -11,-80 -11,-109 0,-63 -29,-162 -80,-269 -61,-129 -73,-253 -46,-470 8,-60 13,-112 11,-113 -2,-2 -23,9 -47,25 -24,16 -64,42 -90,57 -54,30 -55,32 -62,168 -4,91 -7,103 -55,201 -103,214 -110,271 -57,433 37,110 159,374 173,374 4,0 42,-27 83,-61 z"
         id="DorsalDER"
         fill="#ffffff" />
      <path
         d="m 1253.9973,4113 c 175,-370 179,-427 45,-701 -41,-83 -43,-92 -48,-199 -4,-81 -10,-117 -20,-128 -28,-28 -175,-113 -178,-104 -2,5 1,46 7,91 14,101 14,288 1,357 -5,29 -25,84 -45,124 -64.00001,135 -67.00001,147 -91.00001,408 -6,66 -6,66 108.00001,151 63,48 120,93 127,102 8,9 19,16 26,16 6,0 37,-53 68,-117 z"
         id="DorsalIZQ"
         fill="#ffffff" />
    </g>
    <path
       d="m 1649.9973,4219 c 36,-6 67,-13 69,-14 2,-2 -10,-29 -26,-61 -34,-68 -136,-307 -147,-344 -17,-59 -48,-120 -61,-120 -16,0 -25,17 -94,193 -27,70 -72,174 -99,231 -49,105 -49,105 13,114 87,14 268,14 345,1 z"
       id="TrapecioMedioBajo"
       fill="#ffffff" />
    <path
       d="m 1741.9973,4406 c 113,-38 146,-59 111,-70 -11,-4 -45,-27 -77,-52 -43,-33 -65,-44 -81,-40 -71,18 -222,25 -312,15 -144,-17 -146,-17 -192,25 -23,20 -52,42 -66,48 -13,6 -24,15 -24,19 0,13 132,60 189,67 102,13 402,5 452,-12 z"
       id="TrapecioAlto"
       fill="#ffffff" />
    <g>
      <path
         d="m 2053.9973,4286 c 73,-35 133,-97 168,-171 41,-84 39,-88 -23,-80 -128,16 -185,46 -346,183 -60,51 -59,61 14,88 53,19 122,12 187,-20 z"
         id="HombroTraceroDER"
         fill="#ffffff" />
      <path
         d="m 1110.9973,4298 c 25,-13 45,-29 45,-36 0,-17 -187.00001,-166 -240.00001,-192 -36,-17 -191,-47 -200,-38 -8,7 44,120 70,154 33,43 100,92 158,116 58.00001,24 115.00001,22 167.00001,-4 z"
         id="HombroTraceroIZQ"
         fill="#ffffff" />
    </g>
    <path
       d="m 1552.9973,4648 c 41,-17 54,-19 69,-10 18,11 19,8 19,-50 0,-35 4,-78 9,-96 10,-32 10,-32 -166,-32 -156,0 -174,2 -169,16 3,9 6,50 6,91 0,74 0,75 24,69 14,-3 42,2 68,13 56,26 79,25 140,-1 z"
       id="Cuello"
       fill="#ffffff" />
    <path
       d="m 1644.9973,5161 c 49,-59 70,-119 63,-183 -19,-178 -28,-211 -84,-285 -24,-33 -24,-33 -63,-13 -47,24 -97,26 -147,5 -19,-8 -41,-15 -48,-15 -23,0 -77,102 -85,160 -4,30 -13,87 -21,127 -10,56 -10,80 -1,110 56.2998,193.9216 300.8193,186.3829 386,94 z"
       id="Cabeza"
       fill="#ffffff" />
  </g>
</svg>