<?xml version="1.0" encoding="UTF-8" standalone="no"?>
<svg
   version="1.0"
   width="305.000000pt"
   height="544.000000pt"
   viewBox="0 0 305.000000 544.000000"
   preserveAspectRatio="xMidYMid meet"
   id="svg2"
   sodipodi:docname="Espalda Avanzado path nombrados.svg"
   inkscape:version="1.3.2 (091e20e, 2023-11-25, custom)"
   xmlns:inkscape="http://www.inkscape.org/namespaces/inkscape"
   xmlns:sodipodi="http://sodipodi.sourceforge.net/DTD/sodipodi-0.dtd"
   xmlns="http://www.w3.org/2000/svg"
   xmlns:svg="http://www.w3.org/2000/svg">
  <defs
     id="defs2" />
  <sodipodi:namedview
     id="namedview2"
     pagecolor="#ffffff"
     bordercolor="#000000"
     borderopacity="0.25"
     inkscape:showpageshadow="2"
     inkscape:pageopacity="0.0"
     inkscape:pagecheckerboard="0"
     inkscape:deskcolor="#d1d1d1"
     inkscape:document-units="pt"
     inkscape:lockguides="true"
     showguides="false"
     inkscape:zoom="2.1424632"
     inkscape:cx="117.855"
     inkscape:cy="579.00644"
     inkscape:window-width="1920"
     inkscape:window-height="991"
     inkscape:window-x="-9"
     inkscape:window-y="1341"
     inkscape:window-maximized="1"
     inkscape:current-layer="svg2" />
  <metadata
     id="metadata1">
Created by potrace 1.16, written by Peter Selinger 2001-2019
</metadata>
  <g
     transform="matrix(0.1,0,0,-0.1,0,544)"
     fill="#000000"
     stroke="none"
     id="g2"
     style="fill:#000000;fill-opacity:1"
     inkscape:label="MusculosEspecificosTraceros">
    <path
       style="fill:#000000;fill-opacity:1"
       d="m 1255,5215 c -26,-52 -28,-62 -22,-146 3,-50 2,-102 -4,-115 -14,-39 6,-115 39,-141 26,-22 27,-25 27,-130 0,-108 0,-108 -71,-143 -119,-59 -187,-88 -238,-99 -148,-35 -260,-141 -307,-291 -11,-36 -36,-81 -62,-114 -25,-29 -53,-73 -63,-97 C 486,3784 437,3691 407,3660 355,3608 273,3495 243,3437 197,3345 78,3007 69,2940 c -5,-36 -18,-96 -30,-135 -22,-73 -22,-140 1,-217 14,-47 93,-116 113,-99 24,19 41,85 28,109 -14,25 -14,72 -1,92 8,13 10,13 10,-1 0,-24 35,-51 62,-47 23,3 23,4 19,113 -2,70 -8,120 -18,138 -13,26 -12,32 7,72 12,24 67,95 123,158 56,63 118,140 137,171 81,132 153,236 215,306 36,41 87,108 113,147 26,40 51,71 56,70 5,-2 21,-37 36,-79 14,-42 34,-88 44,-103 67,-102 78,-325 30,-585 -9,-47 -18,-104 -20,-128 -3,-23 -17,-93 -33,-155 -48,-187 -66,-345 -65,-582 1,-169 5,-232 22,-323 11,-62 19,-119 17,-125 -2,-7 -9,-65 -15,-131 -7,-75 -22,-154 -41,-213 -58,-189 -59,-233 -22,-612 37,-379 28,-424 -97,-490 -33,-18 -68,-43 -77,-57 -14,-23 -14,-26 1,-43 9,-10 45,-26 79,-35 34,-9 82,-30 106,-46 37,-25 54,-30 107,-30 57,0 64,2 88,31 26,30 26,33 26,185 0,119 5,179 21,257 19,91 78,282 122,392 24,59 22,155 -9,430 -6,58 -5,62 31,113 49,71 61,108 90,281 14,80 39,196 56,256 17,61 45,173 61,250 17,77 33,151 36,165 4,19 7,12 14,-30 13,-86 47,-234 84,-362 18,-64 45,-184 59,-265 31,-180 44,-221 91,-289 41,-60 40,-27 14,-299 -14,-146 -8,-216 25,-290 34,-78 81,-234 105,-350 15,-69 21,-138 22,-248 1,-203 14,-227 118,-227 48,0 97,17 130,45 8,7 35,18 60,25 135,34 144,77 30,135 -74,38 -107,80 -120,154 -6,35 -9,91 -6,125 4,33 15,151 26,261 10,110 21,220 23,245 6,75 -11,187 -47,314 -43,152 -65,359 -48,445 53,261 35,695 -39,951 -11,41 -25,104 -30,140 -4,36 -15,101 -24,145 -22,113 -31,358 -16,436 7,35 30,97 50,139 21,41 46,99 55,128 10,28 21,52 24,52 4,0 27,-31 52,-67 25,-37 81,-110 125,-163 87,-104 105,-130 189,-267 31,-50 99,-138 151,-195 52,-57 107,-126 122,-154 26,-49 26,-53 11,-85 -9,-19 -18,-79 -22,-136 -6,-96 -6,-102 14,-108 28,-9 58,3 65,26 4,10 10,19 15,19 15,0 16,-54 2,-92 -12,-33 -11,-40 8,-77 11,-23 25,-41 30,-41 5,0 29,19 53,43 38,36 47,53 62,114 17,72 17,72 -9,160 -14,48 -26,103 -26,121 0,18 -9,58 -21,90 -11,31 -43,121 -70,199 -75,220 -136,330 -244,443 -31,32 -61,84 -105,179 -63,140 -84,175 -131,226 -15,17 -33,50 -39,75 -41,155 -150,267 -297,305 -37,9 -84,25 -103,35 -19,10 -69,32 -111,49 -105,44 -117,58 -119,151 -4,111 -3,116 31,148 35,33 49,99 31,150 -7,20 -7,45 0,76 11,51 -9,140 -42,186 -106.2767,206.8338 -394.7223,133.0851 -465,-15 z"
       id="path1"
       sodipodi:nodetypes="ccccscccccccccccccsccccsccccccccccccccscccscscsccccccccccccccccsccccccsccccccccscccscccccsccscccscccccccsccccccc"
       inkscape:label="CuerpoCompleto"
       transform="translate(0,2.4999998e-5)" />
    <g
       id="g11"
       inkscape:label="Pies">
      <path
         style="fill:#fdfdfd;fill-opacity:1"
         d="m 2097,455 c 13,-104 39,-144 129,-191 74,-39 80,-59 22,-74 -74,-19 -82,-22 -120,-47 -60,-40 -158,-44 -172,-6 -4,9 -9,89 -12,177 -2,89 -7,173 -10,188 -5,28 -5,28 38,22 24,-3 54,-1 68,5 43,17 46,13 57,-74 z"
         id="path225"
         inkscape:label="PieDER" />
      <path
         style="fill:#fdfdfd;fill-opacity:1"
         d="m 1018,526 c 53,1 53,1 47,-50 -3,-28 -7,-116 -9,-195 -2,-128 -4,-145 -22,-158 -28,-22 -117,-10 -163,20 -20,14 -45,27 -56,30 -11,3 -39,11 -62,17 -58,15 -55,34 10,66 103,52 134,97 144,209 6,76 6,76 32,68 14,-4 50,-7 79,-7 z"
         id="path224"
         inkscape:label="PieIZQ" />
    </g>
    <g
       id="g10"
       inkscape:label="TendonesAquiles"
       style="fill:#000000;fill-opacity:1"
       transform="translate(0,2.4999998e-5)">
      <path
         style="fill:#fdfdfd;fill-opacity:1"
         d="m 1104.426,872.90132 c 10,-8 23.0493,-17.18833 36.0493,-14.18833 12,3 26.9507,10.42599 26.9507,6.42599 C 1167.426,862.13898 1147,805 1131,752 c -17,-54 -35,-116 -41,-139 -9,-35 -16,-43 -45,-53 -33,-11 -91,-3 -123,18 -8,6 -18,58 -27,148 -19,179 -19,167 4,154 43,-23 30.40457,-39.05706 77.40457,36.94294 7.15718,11.53107 21.46595,-20.96056 35.00233,-43.53711 16.6983,-27.84993 20.0874,-23.99925 38.0523,3.81563 14.6111,22.62228 31.3414,51.47242 36.1071,37.17536 10,-29 8.8597,-34.4955 18.8597,-41.4955 z"
         id="path222"
         sodipodi:nodetypes="ccscccccccsscc"
         inkscape:label="TendonAquilesIZQ" />
      <path
         style="fill:#fdfdfd;fill-opacity:1"
         d="m 1899.2698,872.90132 c -10,-8 -23.0493,-17.18833 -36.0493,-14.18833 -12,3 -26.9507,10.42599 -26.9507,6.42599 0,-3 20.426,-60.13898 36.426,-113.13898 17,-54 35,-116 41,-139 9,-35 16,-43 45,-53 33,-11 91,-3 123,18 8,6 18,58 27,148 19,179 19,167 -4,154 -43,-23 -30.4046,-39.05706 -77.4046,36.94294 -7.1571,11.53107 -21.4659,-20.96056 -35.0023,-43.53711 -16.6983,-27.84993 -20.0874,-23.99925 -38.0523,3.81563 -14.6111,22.62228 -31.3414,51.47242 -36.1071,37.17536 -10,-29 -8.8597,-34.4955 -18.8597,-41.4955 z"
         id="path4"
         sodipodi:nodetypes="ccscccccccsscc"
         inkscape:label="TendonAquilesDER" />
    </g>
    <g
       id="g9"
       inkscape:label="Soleos"
       style="fill:#000000;fill-opacity:1"
       transform="translate(0,2.4999998e-5)">
      <path
         style="fill:#fdfdfd;fill-opacity:1;stroke-width:0.67421"
         d="m 1003.2417,974.09013 c -0.1042,2.87416 27.7732,97.09327 30.3606,180.98607 1.6983,55.0671 36.1093,200.2958 31.4526,-3.3041 -0.2545,-11.1251 11.1765,-171.46745 10.0632,-178.85636 -11.0804,-73.54137 -67.9501,-107.08281 -71.8764,1.17439 z"
         id="path2"
         sodipodi:nodetypes="sssss"
         inkscape:label="SoleoIZQ" />
      <path
         style="fill:#fdfdfd;fill-opacity:1;stroke-width:0.67421"
         d="m 2000.4541,974.09013 c 0.1042,2.87416 -27.7732,97.09327 -30.3606,180.98607 -1.6983,55.0671 -36.1093,200.2958 -31.4526,-3.3041 0.2545,-11.1251 -11.1765,-171.46745 -10.0632,-178.85636 11.0804,-73.54137 67.9501,-107.08281 71.8764,1.17439 z"
         id="path7"
         sodipodi:nodetypes="sssss"
         inkscape:label="SoleoDER" />
    </g>
    <g
       id="g8"
       inkscape:label="Gastrocnemios">
      <g
         id="g4"
         inkscape:label="GastrocnemiosDER">
        <path
           style="fill:#fdfdfd;fill-opacity:1"
           d="m 1805.6965,1311 c -12,-13 -20,-51 -28,-137 -13,-136 -6,-199 25,-246 27,-39 70,-50 85,-21 18,34 34,179 30,281 -2,81 -7,104 -22,121 -24,26 -67,27 -90,2 z"
           id="path5"
           inkscape:label="GastrocnemioIZQ" />
        <path
           style="fill:#fdfdfd;fill-opacity:1"
           d="m 2047.6987,1374 c -50,-42 -60,-73 -60,-176 0,-108 16,-186 51,-249 47,-85 91,-43 109,106 12,95 8,152 -17,250 -16,66 -29,95 -43,95 -4,0 -22,-12 -40,-26 z"
           id="path6"
           inkscape:label="GastrocnemioDER" />
      </g>
      <g
         id="g7"
         inkscape:label="GastrocnemiosIZQ">
        <path
           style="fill:#fdfdfd;fill-opacity:1"
           d="m 1197.9993,1311 c 12,-13 20,-51 28,-137 13,-136 6,-199 -25,-246 -27,-39 -70,-50 -85,-21 -18,34 -34,179 -30,281 2,81 7,104 22,121 24,26 67,27 90,2 z"
           id="path220"
           transform="translate(0,2.4999998e-5)"
           inkscape:label="GastrocnemioDER" />
        <path
           style="fill:#fdfdfd;fill-opacity:1"
           d="m 955.99711,1374 c 49.99999,-42 59.99999,-73 59.99999,-176 0,-108 -16,-186 -50.99999,-249 -47,-85 -91,-43 -109,106 -12,95 -8,152 17,250 16,66 29,95 43,95 4,0 22,-12 40,-26 z"
           id="path218"
           transform="translate(0,2.4999998e-5)"
           inkscape:label="GastrocnemioIZQ" />
      </g>
    </g>
    <g
       id="g12"
       inkscape:label="ArticulacionesRodillas">
      <path
         style="fill:#fdfdfd;fill-opacity:1"
         d="m 1938,1638 c 23,-27 48,-22 76,14 25,32 25,32 30,7 15,-70 26,-224 17,-227 -6,-2 -32,-21 -58,-42 -45,-38 -48,-39 -119,-37 -73,2 -73,2 -72,50 0,40 -6,57 -36,101 -20,29 -36,55 -36,58 0,3 11,3 25,0 63,-12 105,34 105,115 0,55 11,60 33,16 11,-21 26,-46 35,-55 z"
         id="path217"
         inkscape:label="ArticulacionRodillaDER" />
      <path
         style="fill:#fdfdfd;fill-opacity:1"
         d="m 1157,1592 c 16,-22 29,-27 62,-27 22,0 41,-2 41,-5 0,-3 -16,-30 -35,-60 -26,-39 -35,-65 -35,-96 0,-41 0,-41 -71,-48 -70,-6 -70,-6 -130,41 -53,41 -59,50 -54,72 5,20 20,145 25,211 0,3 12,-10 26,-27 14,-18 33,-33 43,-33 21,0 52,32 77,80 18,35 18,35 25,-23 4,-34 15,-70 26,-85 z"
         id="path216"
         inkscape:label="ArticulacionRodillaIZQ" />
    </g>
    <g
       id="g13"
       inkscape:label="IsquiotibialesMediales">
      <path
         style="fill:#fdfdfd;fill-opacity:1"
         d="m 1784,2508 c 8,-43 48,-643 49,-748 2,-116 -12,-170 -44,-170 -43,0 -74,66 -99,210 -6,36 -30,130 -52,210 -52,186 -59,269 -28,336 12,27 24,75 27,106 6,55 7,58 37,63 50,8 80,12 93,14 7,0 15,-9 17,-21 z"
         id="path215"
         inkscape:label="IsquiotibialMedialDER" />
      <path
         style="fill:#fdfdfd;fill-opacity:1"
         d="m 1321,2515 c 35,-5 36,-7 42,-58 4,-29 18,-82 33,-117 24,-61 25,-69 15,-131 -6,-36 -27,-124 -46,-195 -20,-71 -45,-174 -55,-228 -31,-159 -79,-230 -121,-180 -24,29 -22,225 5,573 14,178 26,330 26,338 0,10 9,13 33,9 17,-3 48,-8 68,-11 z"
         id="path214"
         inkscape:label="IsquiotibialMedialIZQ" />
    </g>
    <g
       id="g14"
       inkscape:label="MuslosInternos">
      <path
         style="fill:#fdfdfd;fill-opacity:1"
         d="m 1588,2523 c 12,-3 22,-10 22,-17 0,-27 -19,-123 -30,-151 -16,-41 -25,-21 -39,84 -14,107 -14,104 7,96 9,-4 27,-10 40,-12 z"
         id="path213"
         inkscape:label="MusloInternoDER"
         transform="translate(0,2.4999998e-5)" />
      <path
         style="fill:#fdfdfd;fill-opacity:1"
         d="m 1470,2521 c 0,-41 -22,-176 -30,-184 -9,-10 -36,70 -43,131 -5,40 -3,43 26,57 43,18 47,18 47,-4 z"
         id="path212"
         inkscape:label="MusloInternoIZQ" />
    </g>
    <g
       id="g16"
       inkscape:label="IsquiotibialesLaterales">
      <path
         style="fill:#fdfdfd;fill-opacity:1"
         d="m 1947,2994 c 9,-14 24,-60 33,-102 10,-43 25,-104 34,-137 39,-142 59,-333 60,-555 1,-199 -1,-225 -27,-344 -45,-209 -66,-238 -107,-143 -43,100 -102,458 -116,711 -7,114 -7,114 22,129 68,36 114,117 114,202 0,35 -42,207 -66,269 -6,16 -5,17 14,7 12,-7 30,-23 39,-37 z"
         id="path209"
         inkscape:label="IsquitibialLateralDER" />
      <path
         style="fill:#fdfdfd;fill-opacity:1"
         d="m 1079,2929 c -57,-187 -40,-293 60,-364 51,-37 51,-37 46,-88 -3,-29 -12,-121 -20,-205 -35,-352 -95,-623 -137,-610 -23,7 -47,71 -74,203 -24,116 -23.49936,207.0103 -23.49936,381.0103 0,248 14.49936,333.9897 78.49936,593.9897 12,47 23,97 26,112 5,25 63,94 72,85 2,-3 -10,-51 -28,-108 z"
         id="path208"
         inkscape:label="IsquiotibialLateralIZQ" />
    </g>
    <g
       id="g18"
       inkscape:label="GluteosMayores">
      <path
         style="fill:#fdfdfd;fill-opacity:1"
         d="m 1678,3076 c -3,-57 16,-84 107,-151 114,-85 157,-156 136,-229 -26,-96 -95,-137 -240,-144 -93,-4 -98,-3 -127,21 -29,25 -29,25 -32,224 -3,190 -2,200 20,242 24,46 73,81 115,81 20,0 22,-5 21,-44 z"
         id="path206"
         inkscape:label="GluteoMayorDER" />
      <path
         style="fill:#fdfdfd;fill-opacity:1"
         d="m 1411,3097 c 19,-12 42,-38 51,-57 21,-44 33,-223 23,-345 -6,-79 -10,-92 -35,-117 -25,-25 -36,-28 -93,-28 -139,0 -217,31 -257,102 -51,92 -18,170 115,271 98,73 121,108 110,164 -6,31 -4,33 23,33 16,0 44,-10 63,-23 z"
         id="path205"
         inkscape:label="GluteoMayorIZQ" />
    </g>
    <g
       id="g17"
       inkscape:label="GluteosMediosMenores">
      <path
         style="fill:#fdfdfd;fill-opacity:1"
         d="m 1787,3099 c 26,-12 50,-34 59,-52 20,-37 54,-135 54,-153 0,-14 -144,84 -172,118 -26,30 -22,108 5,108 6,0 30,-9 54,-21 z"
         id="path207"
         inkscape:label="GluteoMedioMenorDER" />
      <path
         style="fill:#fdfdfd;fill-opacity:1"
         d="m 1291,3083 c 8,-43 -7,-70 -61,-110 -25,-18 -64,-49 -87,-69 -24,-19 -43,-31 -43,-25 0,5 11,45 25,89 25,79 45,106 100,136 41,22 58,16 66,-21 z"
         id="path204"
         inkscape:label="GluteoMedioMenorIZQ" />
    </g>
    <g
       id="g15"
       inkscape:label="Manos"
       style="fill:#000000;fill-opacity:1"
       transform="translate(0,2.4999998e-5)">
      <path
         style="fill:#fdfdfd;fill-opacity:1"
         d="m 2925,2835 c 9,-38 20,-84 25,-101 11,-44 -21,-163 -50,-186 -32,-26 -36,-15 -10,27 21,34 22,41 11,92 -10,44 -19,58 -44,74 -48,29 -62,25 -73,-22 -10,-43 -30,-50 -27,-9 1,14 3,50 3,80 1,30 10,73 20,96 16,35 23,41 50,41 17,0 39,7 48,17 16,16 17,15 23,-11 4,-15 14,-59 24,-98 z"
         id="path211"
         inkscape:label="ManoDER" />
      <path
         style="fill:#fdfdfd;fill-opacity:1"
         d="m 174,2926 c 29,0 34,-5 48,-40 19,-49 33,-216 18,-216 -5,0 -15,20 -21,45 -12,49 -23,54 -69,30 -22,-11 -32,-28 -45,-70 -15,-53 -15,-56 5,-96 26,-49 22,-58 -12,-25 -24,25 -48,102 -48,154 0,15 12,65 25,111 14,47 25,98 25,115 0,29 0,29 20,11 12,-11 36,-19 54,-19 z"
         id="path210"
         inkscape:label="ManoIZQ" />
    </g>
    <g
       id="g26"
       inkscape:label="FlexoresMuñecas">
      <path
         style="fill:#fdfdfd;fill-opacity:1"
         d="m 2537,3485 c 131,-197 303,-492 303,-520 0,-3 -11,-5 -25,-5 -18,0 -35,14 -66,57 -23,31 -76,94 -118,139 -42,44 -96,114 -121,153 -25,39 -66,104 -92,144 -47,72 -47,72 -23,80 16,5 27,19 31,35 15,69 5,76 111,-83 z"
         id="path203"
         inkscape:label="FlexorMuñecaDER" />
      <path
         style="fill:#fdfdfd;fill-opacity:1"
         d="m 570,3595 c 0,-24 25,-58 50,-67 8,-2 -2,-24 -28,-63 -22,-33 -65,-99 -95,-146 -30,-48 -90,-124 -132,-170 -43,-46 -91,-104 -108,-129 -36,-53 -44,-60 -75,-60 -21,0 -20,4 27,98 77,153 334,562 354,562 4,0 7,-11 7,-25 z"
         id="path202"
         inkscape:label="FlexorMuñecaIZQ" />
    </g>
    <g
       id="g25"
       inkscape:label="ExtensoresMuñecas">
      <path
         style="fill:#fdfdfd;fill-opacity:1"
         d="m 2596,3615 c 58,-66 104,-133 135,-195 37,-74 149,-384 149,-412 0,-36 -16,-17 -58,68 -58,116 -146,261 -258,426 -52,75 -94,138 -94,140 0,2 23,3 50,3 43,0 54,-4 76,-30 z"
         id="path201"
         inkscape:label="ExtensorMuñecaDER" />
      <path
         style="fill:#fdfdfd;fill-opacity:1"
         d="m 530,3641 c 0,-3 -44,-70 -98,-150 -122,-181 -176,-270 -242,-400 -47,-94 -70,-122 -70,-86 0,20 106,316 140,392 34,74 79,142 137,204 39,42 47,46 88,45 25,-1 45,-3 45,-5 z"
         id="path200"
         inkscape:label="ExtensorMuñecaIZQ" />
    </g>
    <g
       id="g24"
       inkscape:label="CabezasMedialesTriceps">
      <path
         style="fill:#fdfdfd;fill-opacity:1"
         d="m 2328,3910 c 20,-10 47,-27 58,-37 21,-18 134,-175 134,-187 0,-3 -22,-6 -49,-6 -46,0 -50,-2 -60,-31 -6,-18 -11,-43 -11,-55 0,-35 -37,-31 -83,9 -39,32 -39,32 -22,97 19,74 16,150 -9,199 -19,36 -10,39 42,11 z"
         id="path198"
         inkscape:label="CabezaMedialTricepsDER" />
      <path
         style="fill:#fdfdfd;fill-opacity:1"
         d="m 730,3925 c 0,-4 -7,-20 -17,-38 -19,-38 -21,-124 -3,-199 13,-52 13,-52 -26,-85 -52,-45 -76,-41 -86,15 -10,59 -13,62 -64,62 -25,0 -44,5 -44,11 0,15 102,159 132,185 39,36 108,67 108,49 z"
         id="path197"
         inkscape:label="CabezaMedialTricepsIZQ" />
    </g>
    <g
       id="g23"
       inkscape:label="CabezasLargasTriceps">
      <path
         style="fill:#fdfdfd;fill-opacity:1"
         d="m 2195,3985 c 70,-102 87,-159 75,-246 -13,-93 -7,-96 -110,54 -47,69 -60,96 -60,126 0,47 20,151 30,151 3,0 33,-38 65,-85 z"
         id="path195"
         inkscape:label="CabezaLargaTricepsDER" />
      <path
         style="fill:#fdfdfd;fill-opacity:1"
         d="m 895,3991 c 9,-53 11,-90 5,-106 -5,-13 -39,-67 -76,-120 -78,-113 -87,-112 -92,4 -3,65 0,85 18,122 26,50 122,191 127,185 2,-2 10,-40 18,-85 z"
         id="path194"
         inkscape:label="CabezaLargaTricepsIZQ" />
    </g>
    <g
       id="g22"
       inkscape:label="CabezasLateralesTriceps">
      <path
         style="fill:#fdfdfd;fill-opacity:1"
         d="m 2263,4089 c 61,-17 149,-118 172,-199 7,-25 7,-25 -21,1 -16,15 -61,43 -100,62 -49,25 -84,51 -113,85 -22,28 -41,53 -41,56 0,10 61,7 103,-5 z"
         id="path193"
         inkscape:label="CabezaLateralTricepsDER" />
      <path
         style="fill:#fdfdfd;fill-opacity:1"
         d="m 840,4091 c 0,-26 -95,-111 -156,-140 -37,-18 -80,-46 -97,-64 -30,-32 -30,-32 -23,-2 17,69 117,188 172,205 39,11 104,12 104,1 z"
         id="path192"
         inkscape:label="CabezaLateralTricepsIZQ" />
    </g>
    <path
       style="fill:#fdfdfd;fill-opacity:1"
       d="m 1476,3739 c 23,-21 23,-21 52,-1 29,21 29,21 41,-30 6,-28 39,-110 73,-181 41,-87 62,-145 64,-176 14,-197 15,-190 -25,-196 -82,-13 -110,-26 -146,-68 -37,-43 -38,-43 -65,4 -13,23 -89,58 -141,64 -47,6 -47,6 -43,43 2,20 5,73 8,118 3,71 9,91 49,170 49,97 97,224 97,255 0,24 8,24 36,-2 z"
       id="path199"
       inkscape:label="EspaldaBaja"
       transform="translate(0,2.4999998e-5)" />
    <g
       id="g21"
       inkscape:label="Dorsales">
      <path
         style="fill:#fdfdfd;fill-opacity:1"
         d="m 1915,4245 c 52,-41 110,-85 130,-96 44,-26 50,-49 34,-130 -6,-35 -11,-86 -11,-112 1,-60 -29,-159 -78,-257 -21,-41 -43,-100 -49,-130 -14,-66 -15,-280 -1,-370 5,-36 10,-75 10,-88 0,-23 0,-23 -42,6 -24,15 -64,40 -89,55 -70,40 -73,47 -79,171 -5,111 -5,111 -67,242 -34,71 -68,154 -74,184 -22,101 5,200 120,445 58,123 77,155 91,155 6,0 53,-34 105,-75 z"
         id="path191"
         inkscape:label="DorsalDER" />
      <path
         style="fill:#fdfdfd;fill-opacity:1"
         d="m 1256,4219 c 98,-197 146,-325 152,-406 6,-87 -7,-131 -85,-293 -55,-113 -56,-117 -62,-230 -4,-63 -10,-121 -15,-128 -4,-7 -33,-25 -64,-41 -31,-16 -72,-41 -91,-55 -19,-14 -37,-24 -39,-21 -2,2 0,39 7,82 32,235 23,372 -35,493 -52,108 -84,207 -84,259 0,25 -7,84 -14,131 -16,97 -12,109 42,144 20,14 80,58 132,100 52,41 96,75 97,76 2,0 28,-50 59,-111 z"
         id="path189"
         inkscape:label="DorsalIZQ" />
    </g>
    <g
       id="g20"
       inkscape:label="DeltoidesPosteriores">
      <path
         style="fill:#fdfdfd;fill-opacity:1"
         d="m 1945,4374 c 79,-53 228,-215 211,-231 -15,-15 -106,36 -213,120 -116,90 -116,90 -89,114 34,29 42,29 91,-3 z"
         id="path188"
         inkscape:label="DeltoidePosteriorDER" />
      <path
         style="fill:#fdfdfd;fill-opacity:1"
         d="m 1144,4379 c 25,-20 26,-22 11,-39 -62,-68 -277,-208 -306,-198 -11,4 37,74 90,132 43,46 148,126 166,126 7,0 24,-10 39,-21 z"
         id="path187"
         inkscape:label="DeltoidePosteriorIZQ" />
    </g>
    <g
       id="g19"
       inkscape:label="DeltoidesMediales">
      <path
         style="fill:#fdfdfd;fill-opacity:1"
         d="m 2087,4385 c 97,-49 176,-139 203,-235 8,-27 6,-30 -13,-29 -47,2 -67,17 -125,95 -59,79 -105,125 -167,171 -30,22 -30,22 11,23 23,0 61,-10 91,-25 z"
         id="path186"
         inkscape:label="DeltoideMedialDER" />
      <path
         style="fill:#fdfdfd;fill-opacity:1"
         d="m 1035,4402 c -6,-5 -34,-28 -63,-51 -29,-24 -82,-83 -118,-131 -56,-74 -71,-89 -101,-95 -19,-3 -37,-4 -40,-1 -21,21 60,163 120,209 59,45 129,76 172,77 21,0 35,-4 30,-8 z"
         id="path185"
         inkscape:label="DeltoideMedialIZQ" />
    </g>
    <path
       style="fill:#fdfdfd;fill-opacity:1"
       d="m 1558,4013 c 43,-5 53,-9 49,-22 -21,-64 -81,-209 -93,-221 -20,-21 -29,-8 -73,106 -21,54 -42,107 -46,116 -5,14 0,17 32,21 69,7 77,7 131,0 z"
       id="path196"
       inkscape:label="TrapecioBajo"
       transform="translate(0,2.4999998e-5)" />
    <path
       style="fill:#fdfdfd;fill-opacity:1"
       d="m 1630,4319 c 58,-7 108,-15 111,-18 4,-3 -21,-62 -55,-131 -61,-124 -61,-124 -186,-124 -125,0 -125,0 -186,125 -34,68 -59,126 -57,129 6,6 164,27 223,29 25,0 92,-4 150,-10 z"
       id="path190"
       inkscape:label="TrapecioMedio"
       transform="translate(0,2.4999998e-5)" />
    <path
       style="fill:#fdfdfd;fill-opacity:1"
       d="m 1815,4486 c 39,-16 74,-32 78,-36 4,-3 -14,-21 -40,-38 -26,-17 -60,-41 -76,-54 -26,-21 -30,-22 -125,-10 -121,15 -170,15 -298,0 -101,-11 -101,-11 -160,34 -33,25 -68,48 -79,52 -17,7 -13,11 28,32 93,48 135,54 377,51 222,-2 226,-3 295,-31 z"
       id="path184"
       inkscape:label="TrapecioAlto" />
    <path
       style="fill:#fdfdfd;fill-opacity:1;stroke-width:1.00256"
       d="m 1572,4733.9257 c 18,-9.046 42,-14.0716 59,-10.0511 27,5.0255 28,5.0255 34,-62.3174 3,-37.1893 10,-77.3941 15,-88.4503 8,-21.1075 8,-21.1075 -176,-21.1075 -183,0 -184,0 -177,21.1075 3,12.0614 6,51.261 6,88.4503 0,67.3429 0,67.3429 26,62.3174 15,-3.0154 43,1.0051 61,9.046 46,20.1024 114,21.1075 152,1.0051 z"
       id="path183"
       inkscape:label="Cuello" />
    <path
       style="fill:#fdfdfd;fill-opacity:1"
       d="m 1729,5121 c 6,-29 5,-60 -4,-104 -8,-34 -16,-83 -20,-108 -7,-59 -70,-163 -94,-155 -9,3 -38,12 -64,22 -46,16 -50,16 -110,-4 -43,-14 -66,-17 -74,-10 -26,21 -73,117 -73,148 0,18 -7,60 -16,94 -23,88 -15,165 22,218 49,69 83,83 218,85 137.9355,10.3708 177.8216,-47.2565 215,-186 z"
       id="path182"
       inkscape:label="Cabeza"
       sodipodi:nodetypes="cccscccscccc" />
  </g>
</svg>
