<svg xmlns="http://www.w3.org/2000/svg" version="1.0" viewBox="0 0 293 538">
<path d="M136.4 7.3c-3.8 1.5-9.6 6.6-12.5 11-1.9 2.9-2.3 11.1-1 19 .5 2.9.3 4.3-1 5.7-1.4 1.5-1.7 3.2-1.3 7.6.4 4.8 1 6.2 3.4 8.2 2.8 2.4 2.9 2.9 3.2 12.4.4 9.8.4 9.8-2.6 12.6-1.7 1.6-4.9 3.4-7.3 4.2-2.3.8-7 3.1-10.3 5-3.4 2-9.2 4.5-13 5.5-12.8 3.4-18.2 9.6-24.6 28.6-2.4 7.2-5.5 13.9-8.3 18.2-2.5 3.7-6 10.4-7.8 14.8-2.4 5.9-5.2 10.2-10.6 16.4-4.8 5.7-8.8 11.6-11.7 17.8-4.6 9.4-17.3 40.1-19.6 47.2-.7 2.2-2.6 6.9-4.2 10.5-4 8.8-5.5 20.3-3.8 27.5 1.6 6.5 3 8.1 5.9 6.6 4-2.2 6.1-6.1 6.1-11.7 0-5.2 1.2-7.8 2.4-4.9.8 2.3 5.3 1.8 7-.7.9-1.2 1.6-4.3 1.6-6.8.1-2.5.8-6.3 1.7-8.5.9-2.2 1.6-6.2 1.5-8.8-.2-6.1 1.1-8.1 11.8-17.2 9.4-8.1 15.1-15.2 21.7-27.4 4.6-8.4 17.5-26.6 24.6-34.6 3.2-3.7 3.6-3.8 4.2-2 .9 2.5 7 17.3 10.1 24.5 2.7 6.2 3 12.3 1.4 26.4-3.3 28.1-4.2 34.3-6.9 46.1-8.1 35.9-9.2 70.7-3 96.5 1.8 7.9 1.9 8.8.4 19.4-.9 6-2.4 13.8-3.5 17.2-4.5 14.6-5 29-1.9 54.6 1.4 11.9 1.9 20.8 1.6 28.4-.4 11-.5 11.3-4.8 18.9-2.4 4.2-5.7 8.6-7.2 9.7-3.9 2.8-8.7 9.6-8.7 12.3 0 2.2 3.9 6.4 7.5 8.3 1.1.5 4.3 1.3 7.2 1.7 5.2.7 5.3.6 10.7-4.1 3-2.6 6-6.1 6.6-7.7.5-1.7 2.8-4.7 5-6.7 4.1-3.8 4.1-3.8 4-11.1-.3-16.7 1.7-36.1 5-47.8 1.7-6.3 3.9-13 4.9-15 3.1-6 3.3-9.3 1.6-24.9-1.6-15-1.6-15 2.1-22.3 5.3-10.6 6.2-13.6 7.9-27.2 2-15 7.3-35.7 14.3-55.7.3-.9.9-.2 1.5 2 .5 1.9 2.7 8.9 4.8 15.5 5.4 17.1 6.6 22.2 8.8 38.3 1.8 12.8 2.5 15.4 6.8 24.3 4.7 10.1 4.7 10.1 3.5 22.2-1.8 17.8-1.6 20.6 1.8 29 4.7 11.8 8.1 27 8.6 38.7.9 19.3 1.5 28.5 1.9 30.7.3 1.2 2 3.1 3.9 4.2 2.2 1.4 3.6 3.1 4 5.2.6 3.1 8.4 11.3 11.8 12.5 1 .3 4.3 0 7.5-.5 4.2-.8 6.6-2 9-4.3 5.1-4.9 4.5-7.5-3.5-16.1-13.9-15.1-15.9-23.6-12.2-54.7 3.4-28.3 2.9-42.4-2-60.5-4.4-16.5-4.8-24.2-2-37 5.6-25.8 4.2-58.4-4-95.8-3.5-16.1-8.3-56.9-7.4-63 .4-2.3 2.6-8.5 4.9-13.7 2.3-5.2 5-11.9 6-14.8 1.7-5.4 1.7-5.4 4.7-2.5 5.6 5.3 20.2 25.8 26.2 36.8 5.5 10 7.3 12.2 19.9 24.7 13.8 13.6 13.8 13.6 13.2 18-.4 2.8-.1 5.5.8 7.8.8 1.9 1.8 6.2 2.2 9.5.4 3.3 1.2 6.8 1.7 7.7 1.1 2.2 5.1 2.3 6.9.2 1.2-1.4 1.4-1.4 2 .3.4 1 .8 4 .8 6.7.1 4.2.6 5.3 3.3 7.8 1.8 1.6 3.9 2.7 4.7 2.6 5-1 5.1-22 .1-34.2-1.6-3.9-6.5-16.3-11-27.6-11.9-30-16.6-39-24.9-48.5-5.1-5.8-7.9-10.1-10.1-15.5-1.7-4.1-5.5-11.3-8.4-16-3-4.7-6.1-11.2-7.1-14.5-6.2-21.6-12-28.5-27.6-32.5-3.9-1-7.8-2.5-8.8-3.4-.9-.8-5.5-3.3-10.1-5.5-11.9-5.5-12.4-6.2-12.5-17.6 0-9.3.1-9.5 3.1-12.3 2.3-2.1 3.2-4 3.7-7.5.7-4.7-.3-8.9-2.2-10.2-.7-.4-1.1-5-1.1-11.9 0-10.1-.2-11.7-2.3-14.7-1.2-1.9-4.2-4.4-6.7-5.6-5.8-2.8-19-3.9-24-2z"/>
<g fill="#fff">
<path d="M199.4 393.2c.6 2.4 1.6 5.9 2.1 7.8 2.3 7.9 2.2 28.8-.1 48.5-1.6 13.6-2.1 21.8-1.6 28.9.5 9.4.7 10.2 5.3 18.3 2.6 4.7 6 9.4 7.5 10.5 1.6 1.1 4 3.5 5.4 5.4 2.3 2.9 2.5 3.8 1.6 5.9-1.3 2.9-5.2 5-10.8 5.9-4 .6-4.4.3-9.3-4.3-2.9-2.7-5.1-5.8-5.1-6.9 0-1.2-1.7-3.4-4.1-5.2-3.9-3.2-4-3.4-3.9-9.4.1-3.3-.3-12.9-.9-21.1-1.1-16-4.4-31.2-9.5-43.3-2.9-6.9-3.1-10.4-1.3-25.9 1.3-10.6 1.8-12.2 3.9-10.6 4.5 3.5 11.3 1.5 15.4-4.6 1.5-2.3 3-4.1 3.5-4.1s1.3 1.9 1.9 4.2z"/>
<path d="M100 394.3c.9 1.6 3.1 3.5 4.9 4.3 3 1.2 4 1.2 7.7-.1 2.3-.8 4.3-1.3 4.4-1.2.6.7 2.4 19.4 2.4 25.3 0 5.5-.6 8.4-2.5 12.5-1.3 3-3.8 11-5.5 17.9-3 12-3.5 17.1-4.5 42.5-.1 3.8-.3 7.7-.4 8.5 0 .8-1.7 2.6-3.6 3.9-2.3 1.5-3.8 3.6-4.5 6-.7 2.3-2.7 5-5.4 7.3-4.1 3.5-4.8 3.7-8.9 3.2-5.5-.8-11.9-5.6-11-8.2.3-.9 3.2-4.4 6.3-7.7 10.8-11.5 16-25.4 14.6-39-.3-2.7-1.5-13.8-2.7-24.5-1.5-13.8-1.9-22.1-1.5-28.4.7-9.2 2.7-20 4.6-25 .9-2.4 1.3-2.6 2.6-1.5.8.7 2.2 2.6 3 4.2z"/>
</g>
<g fill="#fff">
<path d="M196.1 376.1c1.2 8.3 1.2 8.3-2 11.9-1.8 2-4 4.7-4.9 5.8-4.1 5.1-12.2 1.2-17.5-8.3-4.2-7.7-4.2-9 .1-6.4 5.9 3.4 11.1.4 13.4-7.7 1.1-4 1.2-4 5.4-3.8 4.3.2 4.3.2 5.5 8.5z"/>
<path d="M108.4 372.6c1.3 3.8 2.4 5.3 5.2 6.8 3.5 1.9 3.5 1.9 7.7-.2 2.2-1.2 4.1-1.9 4.1-1.6 0 .4-1.4 3.3-3.2 6.5-4.1 7.7-8.8 11.9-13.3 11.9-3.1 0-4-.7-7.1-5-2-2.8-4-5-4.5-5-1.2 0-1.1-5 .2-12.4 1.2-6.2 1.2-6.2 5.2-6.1 4 .1 4.1.2 5.7 5.1z"/>
</g>
<g fill="#FF5733">
<path d="M278.4 240.2c0 .6 1.8 5.6 4 11.1 3.6 9 4.1 11.1 4.3 19.3.1 6.4-.2 9.7-1 10.5-1.1 1-1.3.1-1.3-4.7 0-4.9-.6-7.4-3.2-12.5-4.2-8.2-6.1-8.7-7.4-1.9-.5 2.8-1.3 5.2-1.9 5.3-.5.1-1.3-2.4-1.6-5.6-.4-3.1-1.4-7.8-2.4-10.3-1.9-5.1-1.4-9.4 1.3-9.4.9 0 3.1-.8 4.7-1.9 3.1-1.9 4.5-1.8 4.5.1z"/>
<path d="M19.1 240c1.4 1.1 3.4 2 4.5 2 2.9 0 4.1 4.5 2.2 8.2-.9 1.7-2 6.3-2.5 10.1-.5 3.9-1.1 7.3-1.4 7.6-1.1 1-2.5-2.4-2.5-6.1 0-11.5-9.5.9-11 14.4-.6 5.5-.7 5.9-1.5 3.4-.4-1.6-.5-6.7-.2-11.5.4-6.6 1.3-10.2 3.6-15.4 1.7-3.7 3.6-8.5 4.2-10.7.7-2.2 1.4-4 1.7-4 .2 0 1.5.9 2.9 2z"/>
</g>
<g fill="#fff">
<path d="M189.8 241c.4 3 2.3 12.7 4.1 21.5 1.9 8.8 4.2 22.1 5.1 29.5 3 25 .4 62.3-5.1 70.6-1.2 1.8-2.3 2.2-5.7 2.1-4.1-.2-4.2-.1-5.4 3.9-2.4 8.1-4.5 9.8-9.9 7.8-2.4-1-6.2-9.3-8-17.5-.8-4.1-2.2-10.8-3.1-14.9-.9-4.1-3.3-12.9-5.5-19.5-5.2-16.4-6.9-23.8-6.9-31.6 0-5.9.2-6.7 2.4-7.8 2.8-1.6 6.5-8.8 9.5-19 4.9-16.4 11.8-26.1 21.6-30.7 5.7-2.7 5.9-2.6 6.9 5.6z"/>
<path d="M118.3 240.6c6 5.4 8.8 10.8 14.1 26.8 3.6 10.9 4.8 13.4 8.1 16.6 3 2.9 3.9 4.5 3.9 7.1 0 6.6-2.1 16.2-6.4 29.7-2.4 7.6-5.6 19.3-7 26.2-4.9 23-7.6 29.2-12.9 29.8-3.7.4-5.4-1.1-6.9-6.2-1.6-5.8-2.7-6.8-6.2-6.2-5.5 1-6.6-.8-9.7-16.5-1.9-9.5-2.3-14.6-2.3-30.4 0-20.5 1.3-31.6 6.5-55.5 1.5-7.4 3.3-16.6 3.9-20.4.6-3.8 1.3-7.3 1.6-7.7.8-1.4 8.6 2.5 13.3 6.7z"/>
</g>
<g fill="#fff">
<path d="M258.9 194.5c2.4 4.9 7.1 15.7 10.5 23.9 5.6 13.9 5.9 15.1 4.5 17.2-2.9 4.4-5.4 4.1-10.4-1.4-2.5-2.7-7.4-7.3-10.8-10.2-7.8-6.5-12.6-12.7-19.7-25.3-3.1-5.4-5.6-10-5.6-10.2 0-.2 1.7-.1 3.9.2 3.2.4 4.3.1 7.1-2.4 2.7-2.4 3.3-3.8 3.8-8.3.5-5.5.5-5.5 6.4 1 3.6 4 7.5 9.9 10.3 15.5z"/>
<path d="M52.7 184.8c1.5 2.3 6.9 4.4 9.8 3.8 1.6-.3 2.9-.2 2.9.3 0 1.1-7.4 14.3-11.7 20.7-2.9 4.5-26.9 28.4-29.3 29.2-1.7.6-5-1.9-5.5-4.1-.4-1.6 1.8-8.1 6.5-19.8 8.9-21.7 11.7-26.9 18.8-35.3 5.6-6.7 5.6-6.7 6.7-1.4.6 2.9 1.4 5.9 1.8 6.6z"/>
</g>
<path fill="#fff" d="M144.7 153.2c1.6 2.3 1.6 2.3 3.5-.1 1.6-2 2.5-2.3 6-1.9 2.2.3 6.6 1.8 9.7 3.2 5.7 2.6 5.7 2.6 5.1 7.3-.3 2.7-1.1 16.3-1.6 30.3-.6 14-1.7 29.3-2.4 33.9-2.5 14.6-12.5 32.1-18.3 32.1-3.4 0-7.7-4.8-12-13.4-6.4-12.8-7.9-21.7-8.8-54.1-.3-11-1.1-22.6-1.7-25.8-1.3-7-.2-8.6 7.6-11.6 7-2.7 11-2.7 12.9.1z"/>
<g fill="#fff">
<path d="M198.3 151.8c1.2 7.4-.4 13.5-7.5 29.4-2.4 5.3-4.6 11.9-5 14.6-.5 4.3.1 14 2.1 29.4.5 3.7.5 3.8-2.8 3.8-2.4 0-4.1-.9-6.4-3.3-4.6-4.8-5.7-9.4-4.9-20.7.4-6.4.1-12.4-.9-18.5-1.9-11.8-1.9-16.5.3-19.2 1.7-2.3 23.5-22.2 23.9-21.9.1.1.6 3 1.2 6.4z"/>
<path d="M121.7 170.8c.3 1.5-.1 7-.9 12.2-.8 5.2-1.4 15.2-1.3 22.1.1 10.1-.2 13.4-1.6 16.3-2.2 4.7-6 7.6-9.8 7.6-2.9 0-2.9 0-2.1-8.8.5-4.8.9-13.4.9-19.2 0-10.5 0-10.5-5.2-22-6.7-15-7.5-18.3-6.7-27.5.7-7.4.7-7.4 13.4 4.6 8.6 8.1 13 12.9 13.3 14.7z"/>
</g>
<g fill="#fff">
<path d="M222.6 139.7c9.7 5.6 19.9 33.4 15.4 42.1-3.3 6.4-9.6 5.2-17.3-3.2-8.3-9-16.8-19.5-18-22.4-1.3-3-1.7-14-.5-15.9 2.3-3.7 14.5-4 20.4-.6z"/>
<path d="M88.3 138.3c5.5 2.8 5.3 14.8-.4 22-1.9 2.3-6.2 7.7-9.5 11.9-10.1 12.9-16.2 16.1-21.6 11.5-2.5-2.2-2.8-3.1-2.8-7.9.2-9.7 7.2-27.4 13.3-33.6 4.6-4.6 15.7-6.7 21-3.9z"/>
</g>
<g fill="#fff">
<path d="M171.9 103.1c6 1.7 11.9 6.4 18.5 15 3.3 4.3 8.1 9.5 10.7 11.7 4.6 4 4.6 4 2.2 5.2-1.3.7-5.1 3.8-8.5 7-8.2 7.6-12.2 9.4-21 9.5-9.1 0-17.3-3.8-21.9-10.3-3-4.3-3-4.5-3.3-19.1-.3-14.8-.3-14.8 2.8-17.5 2.7-2.2 4.1-2.6 9.8-2.6 3.7 0 8.5.5 10.7 1.1z"/>
<path d="M141.2 104c3.2 2 3.2 2 3.2 17 0 16.3-.5 18.3-5.7 23.2-4 3.8-13.1 7.8-17.9 7.8-7.9 0-13.8-2.6-21.3-9.4-3.8-3.6-7.9-7-9.1-7.6-2.1-1.1-1.9-1.5 5.2-8.9 4-4.3 9.7-10.5 12.6-13.9 6.4-7.5 12.3-10.1 22.7-10.1 5.3-.1 7.8.4 10.3 1.9z"/>
</g>
<g fill="#fff">
<path d="M196.6 101.1c6.4 1.3 12.7 4.8 16.1 8.8 2.7 3.2 8.5 17.4 9.4 23 .6 3.1.4 3.4-1.3 2.7-1-.5-3.7-1.3-5.9-1.8-7.2-1.7-10.8-4.8-26.4-22.8-3-3.4-6.5-6.7-7.8-7.3-1.2-.5-2.3-1.4-2.3-1.8 0-1.9 10.8-2.3 18.2-.8z"/>
<path d="M113.2 100.9c2.2.6 2.1.8-2.3 4.1-2.6 1.9-7.6 7.2-11.1 11.7-3.6 4.6-8.6 9.9-11.1 11.8-4.1 3.1-17 8.1-18.2 7-.7-.8 4.8-16.5 7.7-21.8 3.2-6 9.1-10.2 16.9-12.1 6.1-1.5 14.3-1.8 18.1-.7z"/>
</g>
<g fill="#fff">
<path d="M176.9 91.9c9 4.4 9 4.4 1.3 5.9-7.3 1.4-7.9 1.4-9.8-.3-3-2.7-4-11.7-1.2-10.3.4.2 4.8 2.3 9.7 4.7z"/>
<path d="M127.4 91c0 4.3-2.6 8-5.7 8-2.7 0-13.3-2.3-13.3-3 0-.5 16.8-8.7 18.3-8.9.4-.1.7 1.7.7 3.9z"/>
</g>
<path fill="#fff" d="M143 77c4.8 1.4 9 .4 15-3.6 2-1.4 3.8-2.4 3.9-2.2.2.2.5 6.2.7 13.5.4 13.2.4 13.2-4.4 13.8-2.6.4-6.4 1.8-8.4 3.1-3.7 2.5-3.7 2.5-5.9.4-1.2-1.2-4.7-2.5-8.1-3.2-5.9-1.1-5.9-1.1-5.6-13.2.2-6.6.5-12.7.7-13.4.3-.9 1.5-.6 4.2 1.2 2.1 1.3 5.7 3 7.9 3.6z"/>
<path fill="#fff" d="M138.7 25.6c6.3 1.6 7.2 1.6 13.8-.1 8.9-2.1 9.5-1.7 11.4 9.1 1 5.6 1.9 8.3 3.4 9.5 1.5 1.3 2.1 2.9 2.1 5.9 0 3.4-.6 4.7-3 6.8-1.8 1.6-3 3.6-3 5.1 0 3.5-7.6 10.5-12.9 11.9-8.2 2-19.2-4.6-20.7-12.4-.4-2.4-1.3-3.8-2.6-4.2-3.9-1-5.3-10.3-1.8-12.4 1.7-1.1 2-2.4 2-7.6 0-6 2-13.2 3.7-13.2.4 0 3.8.7 7.6 1.6z"/>
<path fill="#fff" d="M153.9 10.8c2.8.5 6 1.3 7.1 2 2.6 1.4 5.4 7 5.4 10.8 0 2.9 0 2.9-2.6 0-2.3-2.4-3.1-2.7-6.3-2.1-10.1 1.9-12.6 2.1-16.4 1.3-10.8-2.2-10.7-2.2-13.2.2-2.5 2.3-2.5 2.3-2.5.1 0-2.1 3.5-6.1 9.6-11.1 3.7-3.1 6.3-3.2 18.9-1.2z"/>
<path d="M145.1 158.7c-.4.3-.7 1.9-.7 3.4 0 2.9-.1 3-10 4.5-11 1.6-10 4.9 1.6 4.7 7-.2 7.6 0 8.6 2.3 1.4 3.1 2.6 3 3.8-.2.9-2.4 1.4-2.6 6.3-2.3 8.7.4 11.7 0 11.7-1.5 0-1.4-6.9-3.6-11.5-3.6-4.3 0-6.5-1.7-6.5-5 0-2.8-1.7-4-3.3-2.3z"/>
<path d="M145.1 178.6c-.4.4-.7 2.4-.7 4.5 0 4.4-.9 4.9-9.6 4.9-4.7 0-6.4.4-6.4 1.3 0 2.1 4.6 3.7 10.5 3.7 4.7 0 5.5.3 5.5 1.9 0 1 .7 2.4 1.5 3.1 1.5 1.3 1.4 1.4 3-3.5.3-1.1 1.9-1.5 5.8-1.5 5.6 0 10.9-1.8 10.4-3.5-.2-.6-3.6-1.2-7.5-1.5-3.9-.3-7.5-1-8.1-1.5-.5-.6-1.1-2.5-1.3-4.4-.3-3.3-1.7-4.9-3.1-3.5zm2.3 11.4c0 .5-.5 1-1.1 1-.5 0-.7-.5-.4-1 .3-.6.8-1 1.1-1 .2 0 .4.4.4 1z"/>
<path d="M145.1 201.6c-.4.4-.7 2.2-.7 4.1 0 3.3 0 3.3-7.4 3.3-4.1 0-7.7.4-8 .8-1 1.7 5.2 5.2 9.1 5.2 4.5 0 5.9.8 6.4 3.5.6 2.7 3.9 3.3 3.9.6 0-2.5 2.8-4.1 7-4.1 3.6 0 9-2.8 9-4.7 0-.8-2.4-1.3-7.7-1.5-7.8-.3-7.8-.3-8.3-3.7-.5-3.4-1.9-4.8-3.3-3.5zm2.8 10.4c.3.5-.1 1-.9 1-.9 0-1.6-.5-1.6-1 0-.6.4-1 .9-1 .6 0 1.3.4 1.6 1z"/>
<path d="M145.1 223.6c-.4.4-.7 7.6-.7 16.1 0 14.7.1 15.3 2 15.3 2 0 2-.5 1.8-15.7-.3-14.6-.9-17.8-3.1-15.7z"/>
</svg>