<?xml version="1.0" encoding="UTF-8" standalone="no"?>
<svg
   version="1.0"
   width="325.000000pt"
   height="535.000000pt"
   viewBox="0 0 325.000000 535.000000"
   preserveAspectRatio="xMidYMid meet"
   id="svg7"
   sodipodi:docname="Frente Avanzado path nombrados.svg"
   inkscape:version="1.3.2 (091e20e, 2023-11-25, custom)"
   xmlns:inkscape="http://www.inkscape.org/namespaces/inkscape"
   xmlns:sodipodi="http://sodipodi.sourceforge.net/DTD/sodipodi-0.dtd"
   xmlns="http://www.w3.org/2000/svg"
   xmlns:svg="http://www.w3.org/2000/svg">
  <defs
     id="defs7" />
  <sodipodi:namedview
     id="namedview7"
     pagecolor="#ffffff"
     bordercolor="#000000"
     borderopacity="0.25"
     inkscape:showpageshadow="2"
     inkscape:pageopacity="0.0"
     inkscape:pagecheckerboard="0"
     inkscape:deskcolor="#d1d1d1"
     inkscape:document-units="pt"
     inkscape:zoom="3.0808709"
     inkscape:cx="219.25618"
     inkscape:cy="72.869006"
     inkscape:window-width="1920"
     inkscape:window-height="991"
     inkscape:window-x="-9"
     inkscape:window-y="1341"
     inkscape:window-maximized="1"
     inkscape:current-layer="g7" />
  <metadata
     id="metadata1">
Created by potrace 1.16, written by Peter Selinger 2001-2019
</metadata>
  <g
     transform="translate(0.000000,535.000000) scale(0.100000,-0.100000)"
     fill="#000000"
     stroke="none"
     id="g7"
     inkscape:label="MusculosEspecificosFrontales">
    <path
       d="m 1520,5334 c -48,-15 -121,-80 -147,-129 -12,-23 -14,-49 -10,-116 5,-78 3,-89 -14,-105 -36,-32 -21,-127 27,-172 26,-24 28,-39 24,-147 -1,-48 -7,-76 -19,-89 -9,-10 -54,-36 -99,-57 -46,-22 -96,-47 -110,-58 -15,-10 -52,-24 -82,-31 -169,-41 -217,-93 -291,-315 -19,-57 -48,-119 -67,-144 -18,-24 -58,-96 -88,-160 -32,-67 -72,-133 -94,-156 -58,-62 -108,-132 -145,-204 -33,-67 -222,-519 -271,-651 -29,-77 -10,-290 25,-290 6,0 26,14 46,31 33,29 35,35 35,89 0,62 10,80 30,55 17,-21 57,-19 69,4 6,10 14,45 17,77 4,33 15,80 25,106 14,36 16,54 9,74 -13,34 12,76 72,124 129,102 208,195 277,326 53,101 283,396 294,377 2,-4 10,-26 17,-48 7,-22 36,-89 63,-150 48,-104 51,-115 50,-190 -1,-113 -48,-471 -79,-601 -85,-357 -96,-699 -32,-978 18,-81 19,-97 8,-185 -7,-53 -23,-133 -36,-179 -50,-179 -55,-328 -19,-612 11,-88 16,-174 12,-246 -4,-108 -6,-114 -42,-175 -21,-35 -64,-91 -95,-124 -56,-58 -80,-93 -80,-114 0,-10 60,-70 83,-82 7,-4 40,-10 73,-14 60,-6 63,-6 99,27 70,61 76,69 82,98 3,19 17,37 39,51 19,11 36,30 40,42 5,23 10,101 17,302 5,120 47,304 92,403 36,79 38,104 20,266 -16,148 -16,148 24,224 47,92 66,157 81,277 16,135 72,348 148,565 3,9 9,2 15,-20 5,-19 29,-93 52,-165 43,-131 72,-258 100,-440 12,-79 25,-121 62,-198 47,-97 47,-97 35,-211 -18,-173 -16,-225 13,-288 47,-102 85,-273 96,-423 6,-77 10,-173 9,-213 -1,-72 -1,-72 44,-117 25,-24 46,-53 46,-63 0,-11 26,-42 60,-72 61,-52 61,-52 118,-45 31,4 66,12 77,17 35,18 75,61 75,81 0,29 -36,82 -80,117 -21,17 -59,65 -84,108 -43,73 -46,83 -52,172 -4,69 0,146 16,280 33,282 28,424 -20,590 -11,36 -26,114 -33,173 -13,98 -13,114 4,182 60,254 52,612 -21,940 -35,154 -53,267 -76,470 -23,207 -17,255 44,390 27,61 55,127 62,148 12,39 12,39 37,15 47,-43 230,-293 273,-371 66,-121 120,-188 223,-276 113,-97 131,-121 123,-166 -4,-22 0,-55 14,-94 11,-33 20,-78 20,-98 0,-66 48,-107 80,-68 23,27 30,16 30,-46 0,-56 3,-64 35,-96 19,-19 40,-33 47,-31 30,10 43,62 42,163 -1,89 -5,108 -34,175 -17,41 -44,109 -60,150 -47,129 -178,429 -214,493 -19,34 -62,94 -97,132 -43,49 -76,100 -109,170 -26,55 -67,129 -92,165 -26,39 -54,96 -67,140 -31,102 -76,199 -109,233 -40,42 -98,73 -172,92 -36,9 -85,29 -110,44 -25,15 -71,39 -103,52 -32,13 -72,36 -88,51 -27,24 -29,31 -29,101 0,96 8,135 30,142 9,3 22,17 28,31 14,30 16,126 3,140 -5,5 -11,62 -13,126 -3,100 -6,121 -24,145 -38,51 -85,69 -229,88 -16,2 -50,-3 -75,-11 z"
       id="path1"
       transform="translate(0,2.4999998e-5)"
       inkscape:label="CuerpoCompleto" />
    <g
       id="g58"
       inkscape:label="Pies">
      <path
         d="m 2100,525 c 55,-1 55,-1 61,-38 8,-52 71,-151 146,-229 34,-36 63,-71 63,-76 0,-25 -69,-69 -119,-76 -50,-6 -54,-5 -96,31 -29,25 -48,51 -55,76 -6,20 -14,37 -18,37 -4,1 -20,12 -37,25 -28,24 -30,29 -31,102 -1,43 -5,98 -9,122 -8,43 -8,44 16,36 13,-5 49,-9 79,-10 z"
         id="path58"
         style="fill:#ffffff;fill-opacity:1"
         inkscape:label="PieDER" />
      <path
         d="m 1194,423 c -6,-118 -6,-118 -45,-153 -21,-19 -41,-47 -44,-62 -4,-14 -29,-45 -57,-68 -50,-42 -50,-42 -106,-31 -61,12 -102,42 -102,75 0,12 23,42 54,71 61,57 140,182 150,237 7,37 7,37 55,31 28,-3 56,-1 67,5 11,6 22,12 26,12 4,0 5,-53 2,-117 z"
         id="path57"
         style="fill:#ffffff;fill-opacity:1"
         inkscape:label="PieIZQ" />
    </g>
    <g
       id="g77"
       inkscape:label="Tibiales">
      <path
         d="m 1184,1375 c 27,-12 36,-20 32,-33 -7,-23 -64,-497 -79,-655 -7,-70 -16,-129 -22,-130 -15,-3 -17,151 -6,416 15,311 22,417 31,417 4,0 24,-7 44,-15 z"
         id="path56"
         style="fill:#ffffff;fill-opacity:1"
         inkscape:label="TibialIZQ" />
      <path
         d="m 2089,1082 c 17,-403 19,-508 11,-522 -14,-23 -21,8 -35,154 -17,169 -28,270 -55,463 -27,191 -27,185 18,204 37,15 37,15 43,-14 4,-16 12,-144 18,-285 z"
         id="path55"
         style="fill:#ffffff;fill-opacity:1"
         inkscape:label="TibialDER" />
    </g>
    <g
       id="g78"
       inkscape:label="Gastrocnemios">
      <g
         id="g76"
         inkscape:label="GastrocnemiosDER">
        <path
           d="m 1954,1348 c 32,-180 97,-776 85,-784 -16,-10 -37,43 -42,106 -7,80 -50,245 -84,325 -14,33 -28,76 -31,95 -5,33 16,287 25,303 9,16 41,-14 47,-45 z"
           id="path54"
           style="fill:#ffffff;fill-opacity:1"
           inkscape:label="GastrocnemioIZQ" />
        <path
           d="m 2154,1418 c 42,-147 45,-322 8,-628 -19,-155 -19,-155 -25,-60 -4,52 -9,172 -12,265 -3,94 -10,232 -15,309 -8,101 -7,142 1,152 19,23 27,16 43,-38 z"
           id="path52"
           style="fill:#ffffff;fill-opacity:1"
           inkscape:label="GastrocnemioDER" />
      </g>
      <g
         id="g75"
         inkscape:label="GastrocnemiosIZQ">
        <path
           d="m 1316,1198 c 7,-123 6,-129 -19,-186 -34,-75 -85,-274 -93,-363 -5,-53 -11,-72 -25,-80 -16,-8 -19,-6 -19,10 0,33 38,384 65,591 22,175 27,197 47,214 23,18 23,18 30,-20 4,-22 10,-96 14,-166 z"
           id="path53"
           style="fill:#ffffff;fill-opacity:1"
           inkscape:label="GastrocnemioDER" />
        <path
           d="m 1095,1380 c -1,-168 -29,-722 -36,-704 -18,47 -52,430 -46,522 9,127 45,274 66,270 13,-3 16,-19 16,-88 z"
           id="path51"
           style="fill:#ffffff;fill-opacity:1"
           inkscape:label="GastrocnemioIZQ" />
      </g>
    </g>
    <path
       d="m 2116,1590 c 7,-67 6,-70 -25,-107 -18,-21 -41,-49 -52,-62 -27,-32 -80,-24 -125,20 -29,28 -94,135 -94,154 0,4 15,-3 34,-14 66,-41 124,-14 146,67 10,39 13,41 53,44 50,4 54,-3 63,-102 z"
       id="path50"
       style="fill:#ffffff;fill-opacity:1"
       inkscape:label="ArticulacionRodillaDER" />
    <path
       d="m 1207,1645 c 15,-46 55,-85 86,-85 12,0 37,9 55,20 43,27 42,10 -7,-71 -43,-71 -71,-96 -119,-105 -30,-6 -37,-2 -87,52 -60,64 -61,69 -43,172 11,68 11,68 56,62 42,-5 46,-8 59,-45 z"
       id="path49"
       style="fill:#ffffff;fill-opacity:1"
       inkscape:label="ArticulacionRodillaIZQ" />
    <path
       d="m 1415.0011,2938 c 25,-23 60,-64 77,-91 74,-107 141,-105 216,6 35,53 61,81 112,120 39,32 39,32 -7,-33 -34,-48 -59,-101 -93,-200 -51,-149 -65,-177 -99,-190 -59,-22 -93,20 -146,185 -39,118 -57,156 -105,219 -42,55 -20,48 45,-16 z"
       id="path43"
       style="fill:#ffffff;fill-opacity:1"
       inkscape:label="Ingle" />
    <g
       id="g73"
       inkscape:label="RectosFemorales">
      <path
         d="m 2005,2632 c 0,-257 -3,-308 -28,-489 -33,-243 -35,-334 -8,-386 17,-34 18,-41 4,-87 -25,-86 -85,-102 -128,-36 -13,20 -15,32 -7,58 6,18 13,137 16,263 4,158 12,269 25,355 11,68 28,188 36,265 17,143 35,250 55,325 9,33 14,40 23,31 9,-9 12,-92 12,-299 z"
         id="path46"
         style="fill:#ffffff;fill-opacity:1"
         inkscape:label="RectoFemoralDER" />
      <path
         d="m 1245,2859 c 8,-35 28,-170 45,-299 17,-129 35,-260 40,-290 6,-30 13,-161 16,-290 4,-156 10,-249 19,-277 13,-41 13,-44 -11,-72 -51,-61 -94,-49 -120,33 -16,52 -16,56 2,93 27,53 24,159 -12,418 -24,178 -28,244 -29,435 0,234 10,357 26,328 5,-9 15,-44 24,-79 z"
         id="path45"
         style="fill:#ffffff;fill-opacity:1"
         inkscape:label="RectoFemoralIZQ" />
    </g>
    <g
       id="g71"
       inkscape:label="CuadricepsExternos">
      <path
         d="m 2050,2992 c 0,-15 14,-92 31,-172 68,-326 73,-367 73,-620 -1,-202 -4,-248 -22,-325 -34,-151 -44,-165 -92,-145 -66,28 -73,97 -35,390 42,319 49,653 19,837 -7,46 0,78 16,68 5,-3 10,-18 10,-33 z"
         id="path41"
         style="fill:#ffffff;fill-opacity:1"
         inkscape:label="CuadricepsExternoDER" />
      <path
         d="m 1170,2868 c -18,-198 -8,-465 25,-708 43,-320 38,-396 -29,-428 -46,-23 -63,4 -92,144 -48,236 -41,512 21,804 44,211 53,255 60,304 5,34 10,45 17,38 8,-8 7,-53 -2,-154 z"
         id="path40"
         style="fill:#ffffff;fill-opacity:1"
         inkscape:label="CuadricepsExternoIZQ" />
    </g>
    <g
       id="g74"
       inkscape:label="CuadricepsInternos">
      <path
         d="m 1822,1938 c -2,-115 -7,-208 -12,-208 -17,0 -65,278 -54,313 6,20 66,111 68,104 1,-1 0,-95 -2,-209 z"
         id="path48"
         style="fill:#ffffff;fill-opacity:1"
         inkscape:label="CuadricepsInternoDER" />
      <path
         d="m 1447,2040 c 5,-28 -9,-153 -27,-230 -4,-19 -11,-48 -15,-64 -15,-69 -25,8 -25,203 0,204 0,204 30,162 17,-23 33,-55 37,-71 z"
         id="path47"
         style="fill:#ffffff;fill-opacity:1"
         inkscape:label="CuadricepsInternoIZQ" />
    </g>
    <g
       id="g70"
       inkscape:label="MuslosInternos">
      <path
         d="m 1977,3003 c -43,-85 -65,-188 -92,-423 -22,-193 -50,-314 -90,-395 -43,-87 -62,-112 -74,-99 -17,17 -82,246 -87,308 -3,34 -7,73 -9,88 -4,23 1,31 25,43 33,17 77,102 105,200 26,89 67,176 106,220 33,37 118,99 127,91 2,-2 -3,-17 -11,-33 z"
         id="path39"
         style="fill:#ffffff;fill-opacity:1"
         inkscape:label="MusloInternoDER" />
      <path
         d="m 1306,2977 c 70,-64 96,-109 143,-249 47,-140 62,-170 103,-201 32,-25 32,-25 22,-114 -11,-88 -80,-333 -95,-333 -14,0 -66,84 -88,144 -31,83 -46,161 -76,391 -32,249 -48,314 -103,417 -11,22 48,-12 94,-55 z"
         id="path38"
         style="fill:#ffffff;fill-opacity:1"
         inkscape:label="MusloInternoIZQ" />
    </g>
    <g
       id="g72"
       inkscape:label="Manos">
      <path
         d="m 2965,2978 c 4,-13 24,-63 45,-113 43,-104 58,-210 38,-278 -12,-42 -12,-42 -19,33 -8,89 -51,183 -87,188 -20,3 -22,-1 -22,-40 0,-45 -14,-78 -26,-65 -5,4 -11,39 -15,77 -4,38 -16,83 -25,100 -23,39 -10,83 26,88 13,2 33,10 44,18 28,19 34,18 41,-8 z"
         id="path44"
         style="fill:#ffffff;fill-opacity:1"
         inkscape:label="ManoDER" />
      <path
         d="m 316,2970 c 43,0 57,-46 29,-99 -8,-16 -17,-58 -21,-95 -4,-37 -11,-69 -15,-72 -12,-7 -29,39 -29,77 0,33 -19,38 -42,12 -34,-39 -61,-108 -63,-165 -1,-32 -5,-61 -8,-64 -13,-13 -19,51 -14,134 4,71 11,102 41,169 20,45 36,84 36,86 0,3 5,18 10,33 11,27 11,27 33,5 13,-11 32,-21 43,-21 z"
         id="path42"
         style="fill:#ffffff;fill-opacity:1"
         inkscape:label="ManoIZQ" />
    </g>
    <g
       id="g69"
       inkscape:label="FlexoresMuñecas">
      <path
         d="m 2566,3503 c 84,-108 304,-467 304,-496 0,-19 -30,6 -166,141 -134,131 -156,158 -204,246 -70,127 -68,119 -32,111 17,-3 39,-2 49,4 25,15 34,13 49,-6 z"
         id="path35"
         style="fill:#ffffff;fill-opacity:1"
         inkscape:label="FlexorMuñecaDER" />
      <path
         d="m 728,3507 c 17,1 32,-1 32,-3 0,-16 -100,-188 -137,-236 -24,-31 -83,-91 -132,-133 -49,-42 -100,-90 -114,-108 -40,-51 -44,-23 -8,51 43,88 107,192 204,330 70,99 82,112 100,105 12,-4 37,-7 55,-6 z"
         id="path34"
         style="fill:#ffffff;fill-opacity:1"
         inkscape:label="FlexorMuñecaIZQ" />
    </g>
    <g
       id="g68"
       inkscape:label="ExtensoresMuñecas">
      <path
         d="m 2775,3425 c 72,-149 157,-360 153,-381 -8,-41 -29,-21 -73,66 -26,51 -98,168 -160,261 -114,168 -114,170 -109,217 10,82 11,82 75,12 42,-46 76,-98 114,-175 z"
         id="path33"
         style="fill:#ffffff;fill-opacity:1"
         inkscape:label="ExtensorMuñecaDER" />
      <path
         d="m 610,3631 c 0,-16 5,-42 10,-57 9,-23 7,-33 -12,-58 -66,-90 -192,-285 -248,-384 -34,-61 -66,-112 -71,-112 -4,0 -10,8 -14,18 -6,21 101,288 166,412 38,74 142,210 160,210 5,0 9,-13 9,-29 z"
         id="path32"
         style="fill:#ffffff;fill-opacity:1"
         inkscape:label="ExtensorMuñecaIZQ" />
    </g>
    <path
       d="m 1580,3883.0761 c 6,-3.8082 16,-6.924 23,-6.924 7,0 18,3.1158 25,6.924 15,8.6549 44,8.6549 117,0 82,-9.6936 98,-15.5789 91,-32.8888 -49.7539,-94.7351 26.1677,-349.0394 -13.6519,-366.4436 -15.2688,-6.6736 -281.1792,1.908 -450.8384,-13.7594 -24.3743,-2.2509 51.2492,281.9702 -10.9524,370.5865 -5,9.0011 1.4427,25.5416 24.4427,30.7345 36,8.3088 123,18.3485 157,18.6947 17,0 31,-2.4234 38,-6.9239 z"
       id="path29"
       style="fill:#ffffff;fill-opacity:1;stroke-width:0.588385"
       sodipodi:nodetypes="cscccsscccc"
       inkscape:label="AbdomenAlto" />
    <path
       d="m 1830.8235,3460.6766 c -4,-14.978 -6.5573,-93.2721 -11.5573,-173.6085 -36.1042,-105.8841 -69.0919,-457.639 -218,-490.189 -85.1596,-18.6151 -190.3798,249.4985 -218,467.0412 l -16.4321,217.6957 c -0.3861,26.84 8.9695,20.4364 16.4321,20.5906 107.6375,-34.8342 264.3749,-78.6072 444.9415,0.9762 12.9671,5.7151 3.399,-28.9761 2.6158,-42.5062 z"
       id="path29-7"
       style="fill:#ffffff;fill-opacity:1;stroke-width:0.825117"
       sodipodi:nodetypes="ccscccsc"
       inkscape:label="AbdomenBajo" />
    <g
       id="g67"
       inkscape:label="Oblicuos">
      <path
         d="m 1203,3840 c 67,-61 128,-122 135,-136 11,-21 10,-44 -3,-139 -8,-63 -15,-165 -13,-227 2,-130 -9,-176 -53,-213 -35,-29 -76,-42 -90,-28 -6,6 -4,57 7,144 21,173 15,218 -46,350 -70,153 -82,199 -74,286 4,40 8,73 11,73 2,0 58,-50 126,-110 z"
         id="path28"
         style="fill:#ffffff;fill-opacity:1"
         inkscape:label="OblicuoIZQ" />
      <path
         d="m 2141,3829 c 2,-48 -12,-88 -78,-237 -62,-140 -65,-168 -43,-370 15,-131 11,-141 -45,-122 -24,8 -45,26 -63,53 -26,39 -27,46 -29,194 -1,84 -7,179 -13,210 -5,31 -10,78 -10,104 0,47 0,47 123,160 67,63 126,121 132,129 7,11 11,3 17,-35 5,-27 9,-66 9,-86 z"
         id="path27"
         style="fill:#ffffff;fill-opacity:1"
         inkscape:label="OblicuoDER" />
    </g>
    <g
       id="g66"
       inkscape:label="CabezaCortaBiceps">
      <path
         d="m 2245,3968 c 45,-53 265,-388 265,-406 0,-18 -25,-25 -57,-17 -39,9 -231,213 -267,283 -28,55 -23,182 8,182 8,0 30,-19 51,-42 z"
         id="path25"
         style="fill:#ffffff;fill-opacity:1"
         inkscape:label="CabezaCortaBicepsDER" />
      <path
         d="m 1030,3984 c 25,-65 4,-150 -54,-213 -23,-25 -68,-78 -99,-117 -61,-78 -109,-114 -151,-114 -42,0 -33,36 38,140 36,52 92,139 125,192 56,88 100,138 123,138 4,0 13,-12 18,-26 z"
         id="path24"
         style="fill:#ffffff;fill-opacity:1"
         inkscape:label="CabezaCortaBicepsIZQ" />
    </g>
    <g
       id="g65"
       inkscape:label="CabezaLargaBiceps">
      <path
         d="m 2384,4006 c 76,-32 176,-241 176,-367 0,-32 -4,-61 -10,-64 -5,-3 -10,-1 -10,4 0,6 -43,74 -96,151 -101,149 -134,214 -134,261 0,34 20,38 74,15 z"
         id="path23"
         style="fill:#ffffff;fill-opacity:1"
         inkscape:label="CabezaLargaBicepsDER" />
      <path
         d="m 892,3982 c -5,-52 -25,-89 -125,-238 -52,-78 -97,-147 -100,-155 -5,-12 -7,-12 -17,1 -35,48 37,276 117,370 40,46 65,60 103,57 22,-2 25,-6 22,-35 z"
         id="path22"
         style="fill:#ffffff;fill-opacity:1"
         inkscape:label="CabezaLargaBicepsIZQ" />
    </g>
    <g
       id="g63"
       inkscape:label="PechoMedioBajo">
      <path
         d="m 1709,4349 c 18,-11 90,-63 159,-116 103,-78 204,-139 295,-177 17,-7 -104,-121 -156,-147 -27,-14 -67,-24 -112,-27 -60,-4 -79,0 -130,22 -124,55 -144,97 -145,287 0,122 2,137 20,157 25,27 27,27 69,1 z"
         id="path19"
         style="fill:#ffffff;fill-opacity:1"
         inkscape:label="PechoMedioBajoDER" />
      <path
         d="m 1562,4353 c 16,-14 18,-33 18,-165 0,-90 -4,-158 -11,-171 -40,-78 -144,-137 -243,-137 -84,0 -138,25 -219,98 -40,36 -73,69 -75,73 -2,4 14,13 35,19 65,21 156,76 274,167 98,75 184,132 198,133 3,0 13,-7 23,-17 z"
         id="path18"
         style="fill:#ffffff;fill-opacity:1"
         inkscape:label="PechoMedioBajoIZQ" />
    </g>
    <g
       id="g62"
       inkscape:label="PechoAlto">
      <path
         d="m 1902,4357 c 29,-14 62,-34 73,-44 40,-36 185,-213 175,-213 -6,0 -41,15 -78,34 -65,33 -333,229 -341,249 -7,19 116,0 171,-26 z"
         id="path16"
         style="fill:#ffffff;fill-opacity:1"
         inkscape:label="PechoAltoDER" />
      <path
         d="m 1480,4383 c 0,-5 -22,-22 -48,-40 -26,-18 -85,-62 -132,-98 -94,-73 -189,-130 -235,-141 -29,-6 -29,-5 21,47 27,30 71,80 97,111 54,65 98,95 165,113 52,15 132,19 132,8 z"
         id="path15"
         style="fill:#ffffff;fill-opacity:1"
         inkscape:label="PechoAltoIZQ" />
    </g>
    <g
       id="g61"
       inkscape:label="DeltoidesMediales">
      <path
         d="m 2230,4352 c 28,-18 56,-47 76,-79 31,-53 92,-218 83,-227 -5,-6 -84,16 -94,26 -3,3 -13,34 -21,67 -18,79 -51,144 -105,205 -44,49 -44,49 -14,42 17,-4 50,-19 75,-34 z"
         id="path17"
         style="fill:#ffffff;fill-opacity:1"
         inkscape:label="DeltoideMedialDER" />
      <path
         d="m 1031,4342 c -53,-64 -90,-139 -103,-212 -11,-60 -11,-60 -62,-74 -28,-8 -52,-13 -55,-11 -2,3 13,52 34,111 43,122 100,195 170,219 60,21 60,19 16,-33 z"
         id="path14"
         style="fill:#ffffff;fill-opacity:1"
         inkscape:label="DeltoideMedialIZQ" />
    </g>
    <g
       id="g60"
       inkscape:label="DeltoidesAnteriores">
      <path
         d="m 2133,4332 c 74,-72 147,-242 105,-242 -15,0 -130,116 -206,208 -24,29 -57,59 -74,68 -35,18 -28,31 22,36 51,5 98,-17 153,-70 z"
         id="path13"
         style="fill:#ffffff;fill-opacity:1"
         inkscape:label="DeltoideAnteriorDER" />
      <path
         d="m 1270,4393 c 3,-3 -2,-10 -11,-16 -48,-36 -72,-61 -148,-149 -75,-89 -127,-138 -146,-138 -14,0 2,88 24,134 30,62 102,139 151,164 30,14 53,18 83,15 23,-3 44,-8 47,-10 z"
         id="path12"
         style="fill:#ffffff;fill-opacity:1"
         inkscape:label="DeltoideAnteriorIZQ" />
    </g>
    <g
       id="g59"
       inkscape:label="TrapecioAlto">
      <path
         d="m 1863,4512 c 26,-12 68,-31 94,-42 25,-11 44,-23 41,-26 -4,-3 -36,-12 -73,-19 -72,-15 -96,-10 -115,25 -12,22 -14,94 -2,88 4,-2 28,-14 55,-26 z"
         id="path11"
         style="fill:#ffffff;fill-opacity:1"
         inkscape:label="TrapecioAltoDER" />
      <path
         d="m 1400,4498 c 0,-49 -6,-60 -37,-77 -17,-8 -36,-8 -83,3 -34,8 -64,17 -67,20 -5,4 158,90 180,94 4,1 7,-17 7,-40 z"
         id="path10"
         style="fill:#ffffff;fill-opacity:1"
         inkscape:label="TrapecioAltoIZQ" />
    </g>
    <path
       d="m 1486,4675 c 81,-55 146,-56 228,-5 32,21 48,26 51,17 2,-6 5,-69 7,-140 3,-127 3,-127 -27,-127 -46,0 -100,-18 -120,-40 -17,-19 -20,-19 -36,-4 -24,22 -87,43 -128,44 -33,0 -34,0 -27,38 3,20 6,83 6,140 0,56 2,102 5,102 2,0 21,-11 41,-25 z"
       id="path9"
       style="fill:#ffffff;fill-opacity:1"
       inkscape:label="Cuello" />
    <path
       d="m 1530,5144 c 62,-16 110,-14 179,8 49,15 68,-8 82,-105 9,-58 16,-80 30,-88 13,-6 19,-21 19,-44 0,-46 -9,-65 -35,-75 -15,-6 -25,-20 -29,-44 -11,-58 -108,-135 -171,-136 -61,0 -175,85 -175,131 0,11 -14,33 -32,49 -25,23 -31,37 -32,71 -1,38 2,43 24,49 24,5 25,11 30,86 5,74 19,114 40,114 5,0 36,-7 70,-16 z"
       id="path8"
       style="fill:#ffffff;fill-opacity:1"
       inkscape:label="Rostro" />
    <path
       d="m 1681,5296 c 79,-8 117,-39 129,-105 9,-50 3,-57 -22,-26 -21,27 -50,31 -95,14 -41,-15 -141,-13 -191,5 -48,17 -70,11 -96,-26 -14,-19 -16,-20 -16,-5 0,33 30,77 72,105 77,51 81,53 133,47 28,-3 66,-7 86,-9 z"
       id="path7"
       style="fill:#ffffff;fill-opacity:1"
       inkscape:label="Pelo" />
    <path
       d="M1585 3808 c-2 -7 -5 -24 -7 -38 -3 -23 -9 -26 -65 -33 -70 -8 -113 -22 -113 -35 0 -13 75 -24 105 -16 36 9 72 -3 78 -26 7 -27 30 -25 42 3 9 19 18 22 65 23 92 1 110 3 110 17 0 14 -80 37 -129 37 -35 0 -51 17 -51 52 0 29 -26 41 -35 16z m25 -98 c0 -5 -4 -10 -10 -10 -5 0 -10 5 -10 10 0 6 5 10 10 10 6 0 10 -4 10 -10z"
       id="path2"
       inkscape:label="RayaGuiaAbdominal4" />
    <path
       d="m 1585,3598 c -2,-7 -5,-26 -7,-43 -3,-34 -24,-42 -115,-44 -46.9049,-0.9288 -73.8932,0.055 -64.0947,-11.5313 C 1410.206,3486.1058 1465.8337,3460 1521,3460 c 52,0 58,-2 61,-22 4,-31 36,-36 40,-6 3,20 9,23 58,26 56,3 140.6736,41.4839 132.6736,55.4839 -3,4 -56.6736,-3.4839 -98.6736,-0.4839 -41,4 -80,9 -85,13 -5,3 -9,23 -9,45 0,28 -4,39 -15,39 -9,0 -18,-6 -20,-12 z m 25,-108 c 0,-5 -4,-10 -10,-10 -5,0 -10,5 -10,10 0,6 5,10 10,10 6,0 10,-4 10,-10 z"
       id="path3"
       sodipodi:nodetypes="cccssccccccsscsssss"
       inkscape:label="RayaGuiaAbdominal3" />
    <path
       d="M1587 3374 c-4 -4 -7 -22 -7 -41 0 -33 0 -33 -80 -33 -51 0 -80 -4 -80 -11 0 -21 45 -48 80 -49 60 -1 77 -9 84 -42 6 -32 29 -34 34 -2 5 29 31 44 74 44 36 0 98 32 98 51 0 5 -37 9 -82 11 -83 3 -83 3 -88 37 -5 34 -19 48 -33 35z m26 -100 c11 -11 -3 -24 -18 -18 -8 4 -12 10 -9 15 6 11 18 12 27 3z"
       id="path4"
       inkscape:label="RayaGuiaAbdominal2" />
    <path
       d="M1585 3148 c-3 -8 -4 -81 -3 -163 3 -125 5 -150 18 -150 13 0 15 24 15 159 0 119 -3 160 -12 163 -7 3 -15 -2 -18 -9z"
       id="path5"
       inkscape:label="RayaGuiaAbdominal1" />
  </g>
</svg>
