<?xml version="1.0" encoding="UTF-8"?>
<svg
   width="2930"
   height="5380"
   viewBox="1500 -53500 26500 39000"
   xmlns="http://www.w3.org/2000/svg">
  <g
     fill="#000000"
     stroke="none">
    <path
       d="m 13640.007,-53608 c -380,150 -960,660 -1250,1100 -190,290 -230,1110 -100,1900 50,290 30,430 -100,570 -140,150 -170,320 -130,760 40,480 100,620 340,820 280,240 290,290 320,1240 40,980 40,980 -260,1260 -170,160 -490,340 -730,420 -230,80 -700,310 -1030,500 -340,200 -920,450 -1300,550 -1280,340 -1820,960 -2460,2860 -240,720 -550,1390 -830,1820 -250,370 -600,1040 -780,1480 -240,590 -520,1020 -1060,1640 -480,570 -880,1160 -1170,1780 -460,940 -1730,4010 -1960,4720 -70,220 -259.99998,690 -419.99998,1050 -399.99999,880 -549.99999,2030 -380,2750 160,650 300,810 590,660 399.99998,-220 609.99998,-610 609.99998,-1170 0,-520 120,-780 240,-490 80,230 530,-180 700,-70 90,-120 160,-430 160,-680 10,-250 80,-630 170,-850 90,-220 160,-620 150,-880 -20,-610 110,-810 1180,-1720 940,-810 1510,-1520 2170,-2740 460,-840 1750,-2660 2460,-3460 320,-370 360,-380 420,-200 90,250 700,1730 1010,2450 270,620 300,1230 140,2640 -330,2810 -420,3430 -690,4610 -810,3590 -920,7070 -300,9650 180,790 190,880 40,1940 -90,600 -240,1380 -350,1720 -450,1460 -500,2900 -190,5460 140,1190 190,2080 160,2840 -40,1100 -50,1130 -480,1890 -240,420 -570,860 -720,970 -390,280 -870,960 -870,1230 0,220 390,640 750,830 110,50 430,130 720,170 520,70 530,-60 1070,-410 300,-260 600,-610 660,-770 50,-170 280,-470 500,-670 410,-380 410,-380 400,-1110 -30,-1670 170,-3610 500,-4780 170,-630 390,-1300 490,-1500 310,-600 330,-930 160,-2490 -160,-1500 -160,-1500 210,-2230 530,-1060 620,-1360 790,-2720 200,-1500 730,-3570 1430,-5570 30,-90 90,-20 150,200 50,190 270,890 480,1550 540,1710 660,2220 880,3830 180,1280 250,1540 680,2430 470,1010 470,1010 350,2220 -180,1780 -160,2060 180,2900 470,1180 810,2700 860,3870 90,1930 150,2850 190,3070 30,120 200,310 390,420 220,140 360,310 400,520 60,310 840,1130 1180,1250 100,30 430,0 750,-50 420,-80 660,-200 900,-430 510,-490 450,-750 -350,-1610 -1390,-1510 -1590,-2360 -1220,-5470 340,-2830 290,-4240 -200,-6050 -440,-1650 -480,-2420 -200,-3700 560,-2580 420,-5840 -400,-9580 -350,-1610 -830,-5690 -740,-6300 40,-230 260,-850 490,-1370 230,-520 500,-1190 600,-1480 170,-540 170,-540 470,-250 560,530 2020,2580 2620,3680 550,1000 730,1220 1990,2470 1380,1360 1380,1360 1320,1800 -40,280 -10,550 80,780 80,190 180,620 220,950 40,330 120,680 170,770 110,220 510,230 690,20 120,-140 140,-140 200,30 40,100 80,400 80,670 10,420 60,530 330,780 180,160 390,270 470,260 500,-100 510,-2200 10,-3420 -160,-390 -650,-1630 -1100,-2760 -1190,-3000 -1660,-3900 -2490,-4850 -510,-580 -790,-1010 -1010,-1550 -170,-410 -550,-1130 -840,-1600 -300,-470 -610,-1120 -710,-1450 -620,-2160 -1200,-2850 -2760,-3250 -390,-100 -780,-250 -880,-340 -90,-80 -550,-330 -1010,-550 -1190,-550 -1240,-620 -1250,-1760 0,-930 10,-950 310,-1230 230,-210 320,-400 370,-750 70,-470 -30,-890 -220,-1020 -70,-40 -110,-500 -110,-1190 0,-1010 -20,-1170 -230,-1470 -120,-190 -420,-440 -670,-560 -580,-280 -1900,-390 -2400,-200 z"
       id="CuerpoCompleto"/>
    <g transform="translate(240.00703)">
      <path
         d="m 19700,-14928 c 60,240 160,590 210,780 230,790 220,2880 -10,4850 -160,1360 -210,2180 -160,2890 50,940 70,1020 530,1830 260,470 600,940 750,1050 160,110 400,350 540,540 230,290 250,380 160,590 -130,290 -520,500 -1080,590 -400,60 -440,30 -930,-430 -290,-270 -510,-580 -510,-690 0,-120 -170,-340 -410,-520 -390,-320 -400,-340 -390,-940 10,-330 -30,-1290 -90,-2110 -110,-1600 -440,-3120 -950,-4330 -290,-690 -310,-1040 -130,-2590 130,-1060 180,-1220 390,-1060 450,350 1130,150 1540,-460 150,-230 300,-410 350,-410 50,0 130,190 190,420 z"
         id="PantorrillaDER"
         fill="#ffffff"/>
      <path
         d="m 9760,-14908 c 90,160 310,350 490,430 300,120 400,120 770,-10 230,-80 430,-130 440,-120 60,70 240,1940 240,2530 0,550 -60,840 -250,1250 -130,300 -380,1100 -550,1790 -300,1200 -350,1710 -450,4250 -10,380 -30,770 -40,850 0,80 -170,260 -360,390 -230,150 -380,360 -450,600 -70,230 -270,500 -540,730 -410,350 -480,370 -890,320 -550,-80 -1190,-560 -1100,-820 30,-90 320,-440 630,-770 1080,-1150 1600,-2540 1460,-3900 -30,-270 -150,-1380 -270,-2450 -150,-1380 -190,-2210 -150,-2840 70,-920 270,-2000 460,-2500 90,-240 130,-260 260,-150 80,70 220,260 300,420 z"
         id="PantorrilaIZQ"
         fill="#ffffff"/>
      <path
         d="m 19370,-16640 c 120,830 120,830 -200,1190 -180,200 -400,470 -490,580 -410,510 -1220,120 -1750,-830 -420,-770 -420,-900 10,-640 590,340 1110,40 1340,-770 110,-400 120,-400 540,-380 430,20 430,20 550,850 z"
         id="ArticulacionRodillaDER"
         fill="#ffffff"/>
      <path
         d="m 10600,-16996 c 130,380 240,530 520,680 350,190 350,190 770,-20 220,-120 410,-190 410,-160 0,40 -140,330 -320,650 -410,770 -880,1190 -1330,1190 -310,0 -400,-70 -710,-500 -200,-280 -400,-500 -450,-500 -120,0 -110,-500 20,-1240 120,-620 120,-620 520,-610 400,10 410,20 570,510 z"
         id="ArticulacionRodillaIZQ"
         fill="#ffffff"/>
      <path
         d="m 27600,-30328 c 0,60 180,560 400,1110 360,900 410,1110 430,1930 10,640 -20,970 -100,1050 -110,100 -130,-10 -130,-470 0,-490 -60,-740 -320,-1250 -420,-820 -610,-870 -740,-190 -50,280 -130,520 -190,530 -50,10 -130,-240 -160,-560 -40,-310 -140,-780 -240,-1030 -190,-510 -140,-940 130,-940 90,0 310,-80 470,-190 310,-190 450,-180 450,10 z"
         id="ManoDER"
         fill="#ffffff"/>
      <path
         d="m 1670,-30328 c 140,110 340,200 450,200 290,0 410,450 220,820 -90,170 -200,630 -250,1010 -50,390 -110,730 -140,760 -110,100 -250,-240 -250,-610 0,-1150 -950,90 -1100,1440 -60,550 -70,590 -150,340 -40,-160 -50,-670 -20,-1150 40,-660 130,-1020 360,-1540 170,-370 360,-850 420,-1070 70,-220 140,-400 170,-400 20,0 150,90 290,200 z"
         id="ManoIZQ"
         fill="#ffffff"/>
      <path
         d="m 18740,-30228 c 40,300 230,1270 410,2150 190,880 420,2210 510,2950 300,2500 40,6230 -510,7060 -120,180 -230,220 -570,210 -410,-20 -420,-10 -540,390 -240,810 -450,980 -240,-100 -620,-930 -800,-1750 -80,-410 -220,-1080 -310,-1490 -90,-410 -330,-1290 -550,-1950 -520,-1640 -690,-2380 -690,-3160 0,-590 20,-670 240,-780 280,-160 650,-880 950,-1900 490,-1640 1180,-2610 2160,-3070 570,-270 590,-260 690,560 z"
         id="CuadricepsDER"
         fill="#ffffff"/>
      <path
         d="m 11590,-30268 c 600,540 880,1080 1410,2680 360,1090 480,1340 810,1660 300,290 390,450 390,710 0,660 -210,1620 -640,2970 -240,760 -560,1930 -700,2620 -490,2300 -760,2920 -1290,2980 -370,40 -540,-110 -690,-620 -160,-580 -270,-680 -620,-620 -550,100 -660,-80 -970,-1650 -190,-950 -230,-1460 -230,-3040 0,-2050 130,-3160 650,-5550 150,-740 330,-1660 390,-2040 60,-380 130,-730 160,-770 80,-140 860,250 1330,670 z"
         id="CuadricepsIZQ"
         fill="#ffffff"/>
      <path
         d="m 25650,-34896 c 240,490 710,1570 1050,2390 560,1390 590,1510 450,1720 -290,440 -540,410 -1040,-140 -250,-270 -740,-730 -1080,-1020 -780,-650 -1260,-1270 -1970,-2530 -310,-540 -560,-1000 -560,-1020 0,-20 170,-10 390,20 320,40 430,10 710,-240 270,-240 330,-380 380,-830 50,-550 50,-550 640,100 360,400 750,990 1030,1550 z"
         id="AntebrazoDER"
         fill="#ffffff"/>
      <path
         d="m 5030,-35852 c 150,230 690,440 980,380 160,-30 290,-20 290,30 0,110 -740,1430 -1170,2070 -290,450 -2690,2840 -2930,2920 -170,60 -500,-190 -550,-410 -40,-160 180,-810 650,-1980 890,-2170 1170,-2690 1880,-3530 560,-670 560,-670 670,-140 60,290 140,590 180,660 z"
         id="AntebrazoIZQ"
         fill="#ffffff"/>
      <path
         d="m 19590,-39142 c 120,740 -40,1350 -750,2940 -240,530 -460,1190 -500,1460 -50,430 10,1400 210,2940 50,370 50,380 -280,380 -240,0 -410,-90 -640,-330 -460,-480 -570,-940 -490,-2070 40,-640 10,-1240 -90,-1850 -190,-1180 -190,-1650 30,-1920 170,-230 2350,-2220 2390,-2190 10,10 60,300 120,640 z"
         id="OblicuoDER"
         fill="#ffffff"/>
      <path
         d="m 11930,-37342 c 30,150 -10,700 -90,1220 -80,520 -140,1520 -130,2210 10,1010 -20,1340 -160,1630 -220,470 -600,760 -980,760 -290,0 -290,0 -210,-880 50,-480 90,-1340 90,-1920 0,-1050 0,-1050 -520,-2200 -670,-1500 -750,-1830 -670,-2750 70,-740 70,-740 1340,460 860,810 1300,1290 1330,1470 z"
         id="OblicuoIZQ"
         fill="#ffffff"/>
      <path
         d="m 22020,-40358 c 970,560 1990,3340 1540,4210 -330,640 -960,520 -1730,-320 -830,-900>'-1950 -1800,-2240 -130,-300 -170,-1400 -50,-1590 230,-370 1450,-400 2040,-60 z"
         id="BicepsDER"
         fill="#ffffff"/>
      <path
         d="m 8590,-40488 c 550,280 530,1480 -40,2200 -190,230 -620,770 -950,1190 -1010,1290 -1620,1610 -2160,1150 -250,-220 -280,-310 -280,-790 20,-970 720,-2740 1330,-3360 460,-460 1570,-670 2100,-390 z"
         id="BicepsIZQ"
         fill="#ffffff"/>
      <path
         d="m 16950,-44020 c 600,170 1190,640 1850,1500 330,430 810,950 1070,1170 460,400 460,400 220,520 -130,70 -510,380 -850,700 -820,760 -1220,940 -2100,950 -910,0 -1730,-380 -2190,-1030 -300,-430 -300,-450 -330,-1910 -30,-1480 -30,-1480 280,-1750 270,-220 410,-260 980,-260 370,0 850,50 1070,110 z"
         id="PechoDER"
         fill="#ffffff"/>
      <path
         d="m 13880,-43928 c 320,200 320,200 320,1700 0,1630 -50,1830 -570,2320 -400,380 -1310,780 -1790,780 -790,0 -1380,-260 -2130,-940 -380,-360 -790,-700 -910,-760 -210,-110 -190,-150 520,-890 400,-430 970,-1050 1260,-1390 640,-750 1230,-1010 2270,-1010 530,-10 780,40 1030,190 z"
         id="PechoIZQ"
         fill="#ffffff"/>
      <path
         d="m 19420,-44220 c 640,130 1270,480 1610,880 270,320 850,1740 940,2300 60,310 40,340 -130,270 -100,-50 -370,-130 -590,-180 -720,-170 -1080,-480 -2640,-2280 -300,-340 -650,-670 -780,-730 -120,-50 -230,-140 -230,-180 0,-190 1080,-230 1820,-80 z"
         id="HombroFrontalDER"
         fill="#ffffff"/>
      <path
         d="m 11080,-44240 c 220,60 210,80 -230,410 -260,190 -760,720 -1110,1170 -360,460 -860,990 -1110,1180 -410,310 -1700,810 -1820,700 -70,-80 480,-1650 770,-2180 320,-600 910,-1020 1690,-1210 610,-150 1430,-180 1810,-70 z"
         id="HombroFrontalIZQ"
         fill="#ffffff"/>
      <path
         d="m 17450,-45134 c 900,440 900,440 130,590 -730,140 -790,140 -980,-30 -300,-270 -400,-1170 -120,-1030 40,20 480,230 970,470 z"
         id="TrapecioAltoDER"
         fill="#ffffff"/>
      <path
         d="m 12500,-45228 c 0,430 -260,800 -570,800 -270,0 -1330,-230 -1330,-300 0,-50 1680,-870 1830,-890 40,-10 70,170 70,390 z"
         id="TrapecioAltoIZQ"
         fill="#ffffff"/>
    </g>
    <path
       d="m 14470.007,-38988 c 160,230 160,230 350,-10 160,-200 250,-230 600,-190 220,30 660,180 970,320 570,260 570,260 510,730 -30,270 -110,1630 -160,3030 -60,1400 -170,2930 -240,3390 -250,1460 -1250,3210 -1830,3210 -340,0 -770,-480 -1200,-1340 -640,-1280 -790,-2170 -880,-5410 -30,-1100 -110,-2260 -170,-2580 -130,-700 -20,-860 760,-1160 700,-270 1100,-270 1290,10 z"
       fill="#ffffff"
       id="Abdomen"/>
    <path
       d="m 14300.007,-46628 c 480,140 900,-40 1500,-360 200,-140 380,-240 390,-220 20,20 50,620 70,1350 40,1320 40,1320 -440,1380 -260,40 -640,180 -840,310 -370,250 -370,250 -590,40 -120,-120 -470,-250 -810,-320 -590,-110 -590,-110 -560,-1320 20,-660 50,-1270 70,-1340 30,-90 150,-60 420,120 210,130 570,300 790,360 z"
       fill="#ffffff"
       id="Cuello"/>
    <path
       d="m 13870.007,-51786 c 630,160 720,160 1380,-10 890,-210 950,-170 1140,910 10,560 190,830 340,950 150,130 210,290 210,590 0,340 -60,470 -300,680 -180,160 -300,360 -300,510 0,350 -760,1050 -1290,1190 -820,200 -1920,-460 -2070,-1240 -40,-240 -130,-380 -260,-420 -390,-100 -530,-1030 -180,-1240 170,-110 200,-240 200,-760 0,-600 200,-1320 370,-1320 40,0 380,70 760,160 z"
       fill="#ffffff"
       id="Rostro"/>
    <path
       d="m 15390.007,-53242 c 280,50 600,130 710,200 260,140 540,700 540,1080 0,290 0,290 -260,0 -230,-240 -310,-270 -630,-210 -1010,190 -1260,210 -1640,130 -1080,-220 -1070,-220 -1320,20 -250,230 -250,230 -250,10 0,-210 350,-610 960,-1110 370,-310 630,-320 1890,-120 z"
       fill="#ffffff"
       id="Pelo"/>
    <path
       d="m 14510.007,-38458 c -40,30 -70,190 -70,340 0,290 -10,300 -1000,450 -1100,160 -1000,490 160,470 700,-20 760,0 860,230 140,310 260,300 380,-20 90,-240 140,-260 630,-230 870,40 1170,0 1170,-150 0,-140 -690,-360 -1150,-360 -430,0 -650,-170 -650,-500 0,-280 -170,-400 -330,-230 z"
       id="RayaGuiaAbdominal4"
       style="fill:#000000;fill-opacity:1"/>
    <path
       d="m 14510.007,-36476 c -40,40 -70,240 -70,450 0,440 -90,490 -960,490 -470,0 -640,40 -640,130 0,210 460,370 1050,370 470,0 550,30 550,190 0,100 70,240 150,310 150,130 140,140 300,-350 30,-110 190,-150 580,-150 560,0 1090,-180 1040,-350 -20,-60 -360,-120 -750,-150 -390,-30 -750,-100 -810,-150 -50,-60 -110,-250 -130,-440 -30,-330 -170,-490 -310,-350 z m 230,1140 c 0,50 -50,100 -110,100 -50,0 -70,-50 -40,-100 30,-60 80,-100 110,-100 20,0 40,40 40,100 z"
       id="RayaGuiaAbdominal3"
       style="fill:#000000;fill-opacity:1"/>
    <path
       d="m 14510.007,-34176 c -40,40 -70,220 -70,410 0,330 0,330 -740,330 -410,0 -770,40 -800,80 -10,170 520,520 910,520 450,0 590,80 640,350 60,270 390,330 390,60 0,-250 280,-410 700,-410 360,0 900,-280 900,-470 0,-80 -240,-130 -770,-150 -780,-30 -780,-30 -830,-370 -50,-340 -190,-480 -330,-350 z m 280,1040 c 30,50 -10,100 -90,100 -90,0 -160,-50 -160,-100 0,-60 40,-100 90,-100 60,0 130,40 160,100 z"
       id="RayaGuiaAbdominal2"
       style="fill:#000000;fill-opacity:1"/>
    <path
       d="m 14510.007,-31976 c -40,40 -70,760 -70,1610 0,1470 10,1530 200,1530 200,0 200,-50 180,-1570 -30,-1460 -90,-1780 -310,-1570 z"
       id="RayaGuiaAbdominal1"
       style="fill:#000000;fill-opacity:1"/>
  </g>
</svg>